<svg viewBox="0 0 1987 170" fill="none" xmlns="http://www.w3.org/2000/svg">
<path d="M1384.08 168.079C1373.96 168.079 1365.5 166.281 1358.7 162.683C1351.91 159.086 1346.78 153.556 1343.31 146.094C1339.85 138.5 1337.91 128.706 1337.52 116.715L1368.09 112.118C1368.23 119.046 1368.83 124.642 1369.89 128.906C1371.09 133.17 1372.69 136.235 1374.69 138.1C1376.82 139.965 1379.35 140.898 1382.28 140.898C1386.02 140.898 1388.41 139.632 1389.48 137.101C1390.68 134.569 1391.28 131.904 1391.28 129.106C1391.28 122.444 1389.68 116.848 1386.48 112.318C1383.28 107.654 1378.95 102.991 1373.49 98.3271L1359.5 86.1355C1353.37 80.939 1348.17 75.0763 1343.91 68.5475C1339.78 61.8854 1337.72 53.691 1337.72 43.9643C1337.72 30.2403 1341.78 19.7808 1349.91 12.5857C1358.03 5.25742 1369.09 1.59326 1383.08 1.59326C1391.74 1.59326 1398.67 3.05892 1403.87 5.99025C1409.2 8.92159 1413.2 12.7856 1415.86 17.5823C1418.66 22.2458 1420.53 27.2424 1421.46 32.5721C1422.52 37.7685 1423.12 42.7651 1423.26 47.5618L1392.48 51.3592C1392.34 46.5625 1392.01 42.432 1391.48 38.9677C1391.08 35.3702 1390.15 32.6387 1388.68 30.7733C1387.21 28.7747 1384.95 27.7754 1381.88 27.7754C1378.55 27.7754 1376.09 29.1744 1374.49 31.9725C1373.02 34.7706 1372.29 37.5687 1372.29 40.3668C1372.29 46.3627 1373.69 51.2926 1376.49 55.1566C1379.42 58.8874 1383.22 62.8181 1387.88 66.9486L1401.27 78.7405C1408.33 84.7364 1414.26 91.5318 1419.06 99.1266C1423.99 106.721 1426.45 116.115 1426.45 127.307C1426.45 134.902 1424.72 141.831 1421.26 148.093C1417.79 154.222 1412.86 159.086 1406.47 162.683C1400.21 166.281 1392.74 168.079 1384.08 168.079Z" fill="#F2ECDD"/>
<path d="M1222.05 165.682V3.79248H1266.62C1277.55 3.79248 1287.01 4.99166 1295 7.39002C1303 9.78838 1309.2 14.1188 1313.59 20.3811C1318.12 26.5103 1320.39 35.2377 1320.39 46.5632C1320.39 53.2254 1319.85 59.1546 1318.79 64.3511C1317.72 69.5475 1315.72 74.0778 1312.79 77.9418C1309.99 81.6726 1305.93 84.8038 1300.6 87.3354L1322.79 165.682H1285.81L1268.02 93.1314H1257.83V165.682H1222.05ZM1257.83 72.5455H1267.82C1272.89 72.5455 1276.82 71.6794 1279.62 69.9473C1282.41 68.0819 1284.35 65.4837 1285.41 62.1526C1286.61 58.6883 1287.21 54.5578 1287.21 49.7611C1287.21 42.8325 1285.94 37.4362 1283.41 33.5721C1280.88 29.7081 1276.22 27.7761 1269.42 27.7761H1257.83V72.5455Z" fill="#F2ECDD"/>
<path d="M1132.66 165.682V3.79248H1205.41V28.1758H1168.44V68.3484H1196.62V93.1314H1168.44V141.498H1205.81V165.682H1132.66Z" fill="#F2ECDD"/>
<path d="M1058.25 165.682V30.3743H1033.87V3.79248H1118.41V30.3743H1094.23V165.682H1058.25Z" fill="#F2ECDD"/>
<path d="M974.483 168.079C962.358 168.079 952.765 165.948 945.703 161.684C938.641 157.42 933.578 151.291 930.513 143.296C927.448 135.302 925.916 125.775 925.916 114.716V54.557C925.916 43.3647 927.448 33.8379 930.513 25.9766C933.578 18.1153 938.641 12.1194 945.703 7.98889C952.765 3.72513 962.358 1.59326 974.483 1.59326C986.741 1.59326 996.401 3.72513 1003.46 7.98889C1010.66 12.1194 1015.79 18.1153 1018.85 25.9766C1021.92 33.8379 1023.45 43.3647 1023.45 54.557V114.716C1023.45 125.775 1021.92 135.302 1018.85 143.296C1015.79 151.291 1010.66 157.42 1003.46 161.684C996.401 165.948 986.741 168.079 974.483 168.079ZM974.483 142.697C978.214 142.697 980.945 141.764 982.677 139.899C984.409 138.033 985.542 135.635 986.075 132.704C986.608 129.772 986.875 126.774 986.875 123.71V45.7631C986.875 42.5652 986.608 39.5673 986.075 36.7692C985.542 33.8379 984.409 31.4395 982.677 29.5741C980.945 27.7087 978.214 26.776 974.483 26.776C971.019 26.776 968.42 27.7087 966.688 29.5741C964.956 31.4395 963.824 33.8379 963.291 36.7692C962.758 39.5673 962.491 42.5652 962.491 45.7631V123.71C962.491 126.774 962.691 129.772 963.091 132.704C963.624 135.635 964.69 138.033 966.289 139.899C968.021 141.764 970.752 142.697 974.483 142.697Z" fill="#F2ECDD"/>
<path d="M857.376 168.079C845.25 168.079 835.657 165.948 828.595 161.684C821.533 157.42 816.47 151.291 813.406 143.296C810.341 135.302 808.809 125.775 808.809 114.716V54.557C808.809 43.3647 810.341 33.8379 813.406 25.9766C816.47 18.1153 821.533 12.1194 828.595 7.98889C835.657 3.72513 845.25 1.59326 857.376 1.59326C869.634 1.59326 879.294 3.72513 886.356 7.98889C893.551 12.1194 898.681 18.1153 901.745 25.9766C904.81 33.8379 906.342 43.3647 906.342 54.557V114.716C906.342 125.775 904.81 135.302 901.745 143.296C898.681 151.291 893.551 157.42 886.356 161.684C879.294 165.948 869.634 168.079 857.376 168.079ZM857.376 142.697C861.106 142.697 863.838 141.764 865.57 139.899C867.302 138.033 868.435 135.635 868.968 132.704C869.501 129.772 869.767 126.774 869.767 123.71V45.7631C869.767 42.5652 869.501 39.5673 868.968 36.7692C868.435 33.8379 867.302 31.4395 865.57 29.5741C863.838 27.7087 861.106 26.776 857.376 26.776C853.911 26.776 851.313 27.7087 849.581 29.5741C847.849 31.4395 846.716 33.8379 846.183 36.7692C845.65 39.5673 845.384 42.5652 845.384 45.7631V123.71C845.384 126.774 845.584 129.772 845.983 132.704C846.516 135.635 847.582 138.033 849.181 139.899C850.913 141.764 853.645 142.697 857.376 142.697Z" fill="#F2ECDD"/>
<path d="M724.348 165.682V3.79248H794.3V27.976H760.124V68.7481H789.903V93.731H760.124V165.682H724.348Z" fill="#F2ECDD"/>
<path d="M593.403 168.079C585.941 168.079 579.279 166.547 573.417 163.482C567.687 160.284 563.157 155.821 559.826 150.091C556.628 144.229 555.029 137.3 555.029 129.306C555.029 119.046 557.161 110.052 561.425 102.324C565.822 94.596 571.351 87.2677 578.013 80.3391C575.349 75.5424 572.75 70.7457 570.219 65.9489C567.687 61.019 565.622 56.1556 564.023 51.3589C562.557 46.4289 561.825 41.6322 561.825 36.9687C561.825 30.3066 563.157 24.3107 565.822 18.981C568.62 13.6513 572.617 9.3876 577.814 6.18979C583.143 2.99198 589.606 1.39307 597.2 1.39307C604.129 1.39307 610.191 2.85873 615.388 5.79006C620.584 8.58814 624.648 12.5854 627.58 17.7819C630.644 22.9783 632.176 28.9742 632.176 35.7696C632.176 43.2311 630.644 49.8266 627.58 55.556C624.648 61.2855 621.051 66.4819 616.787 71.1454C612.656 75.6756 608.659 80.0726 604.795 84.3364L623.782 119.912C624.981 117.78 625.981 114.782 626.78 110.918C627.713 106.921 628.379 102.657 628.779 98.1269C629.312 93.5967 629.645 89.5994 629.778 86.1351H651.763C651.763 93.9964 651.23 100.925 650.164 106.921C649.231 112.917 647.832 118.38 645.967 123.31C644.235 128.24 642.103 133.036 639.571 137.7C640.904 139.432 642.769 140.898 645.168 142.097C647.699 143.296 650.231 144.029 652.762 144.295V168.079C651.83 168.212 650.897 168.346 649.964 168.479C649.032 168.612 648.099 168.679 647.166 168.679C643.835 168.679 640.571 167.946 637.373 166.48C634.308 165.148 631.51 163.416 628.979 161.284C626.447 159.019 624.249 156.754 622.383 154.488C619.052 158.752 614.922 162.083 609.992 164.482C605.195 166.88 599.665 168.079 593.403 168.079ZM594.602 146.294C597.534 146.294 600.198 145.561 602.597 144.096C605.128 142.497 607.26 140.431 608.992 137.9L589.206 101.325C586.275 105.988 584.143 110.518 582.81 114.915C581.478 119.179 580.812 123.51 580.812 127.907C580.812 131.371 581.345 134.502 582.41 137.3C583.476 140.098 585.009 142.297 587.007 143.896C589.139 145.495 591.671 146.294 594.602 146.294ZM595.601 67.1481C597.467 64.6165 599.266 61.4853 600.998 57.7545C602.73 54.0238 604.129 50.1597 605.195 46.1625C606.394 42.032 606.994 38.3678 606.994 35.17C606.994 31.7057 606.061 29.0408 604.196 27.1754C602.33 25.3101 600.132 24.3774 597.6 24.3774C594.802 24.3774 592.537 25.5099 590.805 27.775C589.073 30.0401 588.207 33.1047 588.207 36.9687C588.207 42.4317 589.006 47.828 590.605 53.1577C592.204 58.3541 593.869 63.0176 595.601 67.1481Z" fill="#F2ECDD"/>
<path d="M448.396 168.079C438.27 168.079 429.809 166.281 423.013 162.683C416.218 159.086 411.088 153.556 407.624 146.094C404.16 138.5 402.228 128.706 401.828 116.715L432.407 112.118C432.54 119.046 433.14 124.642 434.206 128.906C435.405 133.17 437.004 136.235 439.002 138.1C441.134 139.965 443.666 140.898 446.597 140.898C450.328 140.898 452.726 139.632 453.792 137.101C454.991 134.569 455.591 131.904 455.591 129.106C455.591 122.444 453.992 116.848 450.794 112.318C447.597 107.654 443.266 102.991 437.803 98.3271L423.813 86.1355C417.684 80.939 412.487 75.0763 408.223 68.5475C404.093 61.8854 402.028 53.691 402.028 43.9643C402.028 30.2403 406.092 19.7808 414.219 12.5857C422.347 5.25742 433.406 1.59326 447.397 1.59326C456.057 1.59326 462.986 3.05892 468.182 5.99025C473.512 8.92159 477.509 12.7856 480.174 17.5823C482.972 22.2458 484.838 27.2424 485.77 32.5721C486.836 37.7685 487.436 42.7651 487.569 47.5618L456.79 51.3592C456.657 46.5625 456.324 42.432 455.791 38.9677C455.391 35.3702 454.459 32.6387 452.993 30.7733C451.527 28.7747 449.262 27.7754 446.197 27.7754C442.866 27.7754 440.401 29.1744 438.803 31.9725C437.337 34.7706 436.604 37.5687 436.604 40.3668C436.604 46.3627 438.003 51.2926 440.801 55.1566C443.733 58.8874 447.53 62.8181 452.193 66.9486L465.584 78.7405C472.646 84.7364 478.575 91.5318 483.372 99.1266C488.302 106.721 490.767 116.115 490.767 127.307C490.767 134.902 489.035 141.831 485.571 148.093C482.106 154.222 477.176 159.086 470.781 162.683C464.518 166.281 457.057 168.079 448.396 168.079Z" fill="#F2ECDD"/>
<path d="M331.014 165.682V30.3743H306.63V3.79248H391.172V30.3743H366.989V165.682H331.014Z" fill="#F2ECDD"/>
<path d="M204.39 165.682V3.79248H229.573L262.75 81.7392V3.79248H292.33V165.682H268.146L234.969 81.7392V165.682H204.39Z" fill="#F2ECDD"/>
<path d="M133.652 168.079C121.527 168.079 111.933 165.948 104.871 161.684C97.8094 157.42 92.7462 151.291 89.6816 143.296C86.6171 135.302 85.0848 125.775 85.0848 114.716V54.557C85.0848 43.3647 86.6171 33.8379 89.6816 25.9766C92.7462 18.1153 97.8094 12.1194 104.871 7.98889C111.933 3.72513 121.527 1.59326 133.652 1.59326C145.91 1.59326 155.57 3.72513 162.632 7.98889C169.827 12.1194 174.957 18.1153 178.021 25.9766C181.086 33.8379 182.618 43.3647 182.618 54.557V114.716C182.618 125.775 181.086 135.302 178.021 143.296C174.957 151.291 169.827 157.42 162.632 161.684C155.57 165.948 145.91 168.079 133.652 168.079ZM133.652 142.697C137.382 142.697 140.114 141.764 141.846 139.899C143.578 138.033 144.711 135.635 145.244 132.704C145.777 129.772 146.043 126.774 146.043 123.71V45.7631C146.043 42.5652 145.777 39.5673 145.244 36.7692C144.711 33.8379 143.578 31.4395 141.846 29.5741C140.114 27.7087 137.382 26.776 133.652 26.776C130.187 26.776 127.589 27.7087 125.857 29.5741C124.125 31.4395 122.992 33.8379 122.459 36.7692C121.926 39.5673 121.66 42.5652 121.66 45.7631V123.71C121.66 126.774 121.86 129.772 122.259 132.704C122.792 135.635 123.858 138.033 125.457 139.899C127.189 141.764 129.921 142.697 133.652 142.697Z" fill="#F2ECDD"/>
<path d="M0.623047 165.682V3.79248H70.5752V27.976H36.3986V68.7481H66.1782V93.731H36.3986V165.682H0.623047Z" fill="#F2ECDD"/>
<g clip-path="url(#clip0_55_38)">
<path d="M1488.31 166.213L1488.31 3.18554L1651.34 84.6996L1488.31 166.213Z" fill="#AEFF12"/>
<path d="M1485.5 166.213L1485.5 3.18533C1485.5 2.34208 1486.06 1.21786 1486.9 0.655586C1487.75 0.0933107 1488.87 0.0933107 1489.71 0.655586L1652.74 82.1697C1654.71 83.0129 1654.71 86.105 1652.74 87.2292L1489.71 168.743C1488.87 169.306 1487.75 169.024 1486.9 168.743C1486.06 168.462 1485.5 167.056 1485.5 166.213ZM1491.12 7.68254L1491.12 161.716L1645.15 84.6994L1491.12 7.68254Z" fill="#295F4E"/>
</g>
<g clip-path="url(#clip1_55_38)">
<path d="M1654.2 166.213L1654.2 3.18554L1817.23 84.6996L1654.2 166.213Z" fill="#AEFF12"/>
<path d="M1651.39 166.213L1651.39 3.18533C1651.39 2.34208 1651.95 1.21786 1652.8 0.655586C1653.64 0.0933107 1654.77 0.0933107 1655.61 0.655586L1818.64 82.1697C1820.6 83.0129 1820.6 86.105 1818.64 87.2292L1655.61 168.743C1654.77 169.306 1653.64 169.024 1652.8 168.743C1651.95 168.462 1651.39 167.056 1651.39 166.213ZM1657.01 7.68254L1657.01 161.716L1811.05 84.6994L1657.01 7.68254Z" fill="#295F4E"/>
</g>
<g clip-path="url(#clip2_55_38)">
<path d="M1820.1 166.213L1820.1 3.18554L1983.13 84.6996L1820.1 166.213Z" fill="#AEFF12"/>
<path d="M1817.29 166.213L1817.29 3.18533C1817.29 2.34208 1817.85 1.21786 1818.69 0.655586C1819.54 0.0933107 1820.66 0.0933107 1821.5 0.655586L1984.53 82.1697C1986.5 83.0129 1986.5 86.105 1984.53 87.2292L1821.5 168.743C1820.66 169.306 1819.54 169.024 1818.69 168.743C1817.85 168.462 1817.29 167.056 1817.29 166.213ZM1822.91 7.68254L1822.91 161.716L1976.94 84.6994L1822.91 7.68254Z" fill="#295F4E"/>
</g>
<defs>
<clipPath id="clip0_55_38">
<rect width="168.834" height="168.834" fill="white" transform="translate(1654.27 0.233887) rotate(90)"/>
</clipPath>
<clipPath id="clip1_55_38">
<rect width="168.834" height="168.834" fill="white" transform="translate(1820.17 0.233887) rotate(90)"/>
</clipPath>
<clipPath id="clip2_55_38">
<rect width="168.834" height="168.834" fill="white" transform="translate(1986.07 0.233887) rotate(90)"/>
</clipPath>
</defs>
</svg>
