<svg  viewBox="0 0 1986 170" fill="none" xmlns="http://www.w3.org/2000/svg">
<path d="M1383.65 168.044C1373.53 168.044 1365.07 166.245 1358.27 162.647C1351.48 159.05 1346.35 153.52 1342.88 146.059C1339.42 138.464 1337.49 128.671 1337.09 116.679L1367.67 112.082C1367.8 119.011 1368.4 124.607 1369.46 128.871C1370.66 133.134 1372.26 136.199 1374.26 138.064C1376.39 139.93 1378.92 140.862 1381.86 140.862C1385.59 140.862 1387.99 139.597 1389.05 137.065C1390.25 134.533 1390.85 131.869 1390.85 129.07C1390.85 122.408 1389.25 116.812 1386.05 112.282C1382.86 107.618 1378.52 102.955 1373.06 98.2915L1359.07 86.0998C1352.94 80.9034 1347.75 75.0407 1343.48 68.5118C1339.35 61.8497 1337.29 53.6553 1337.29 43.9286C1337.29 30.2047 1341.35 19.7452 1349.48 12.5501C1357.61 5.22178 1368.66 1.55762 1382.66 1.55762C1391.32 1.55762 1398.24 3.02328 1403.44 5.95461C1408.77 8.88594 1412.77 12.75 1415.43 17.5467C1418.23 22.2102 1420.1 27.2067 1421.03 32.5364C1422.1 37.7329 1422.69 42.7295 1422.83 47.5262L1392.05 51.3236C1391.92 46.5269 1391.58 42.3964 1391.05 38.9321C1390.65 35.3345 1389.72 32.6031 1388.25 30.7377C1386.79 28.739 1384.52 27.7397 1381.46 27.7397C1378.13 27.7397 1375.66 29.1388 1374.06 31.9368C1372.6 34.7349 1371.86 37.533 1371.86 40.3311C1371.86 46.327 1373.26 51.257 1376.06 55.121C1378.99 58.8518 1382.79 62.7824 1387.45 66.9129L1400.84 78.7049C1407.9 84.7008 1413.83 91.4961 1418.63 99.0909C1423.56 106.686 1426.03 116.079 1426.03 127.272C1426.03 134.866 1424.29 141.795 1420.83 148.057C1417.36 154.187 1412.44 159.05 1406.04 162.647C1399.78 166.245 1392.32 168.044 1383.65 168.044Z" fill="#295F4E"/>
<path d="M1221.63 165.646V3.75684H1266.2C1277.12 3.75684 1286.58 4.95602 1294.58 7.35438C1302.57 9.75274 1308.77 14.0831 1313.16 20.3455C1317.69 26.4746 1319.96 35.202 1319.96 46.5276C1319.96 53.1897 1319.43 59.119 1318.36 64.3154C1317.29 69.5119 1315.3 74.0421 1312.36 77.9062C1309.57 81.6369 1305.5 84.7681 1300.17 87.2997L1322.36 165.646H1285.38L1267.59 93.0958H1257.4V165.646H1221.63ZM1257.4 72.5098H1267.39C1272.46 72.5098 1276.39 71.6438 1279.19 69.9116C1281.98 68.0462 1283.92 65.448 1284.98 62.117C1286.18 58.6527 1286.78 54.5221 1286.78 49.7254C1286.78 42.7968 1285.52 37.4005 1282.98 33.5365C1280.45 29.6725 1275.79 27.7404 1268.99 27.7404H1257.4V72.5098Z" fill="#295F4E"/>
<path d="M1132.23 165.646V3.75684H1204.98V28.1402H1168.01V68.3127H1196.19V93.0958H1168.01V141.463H1205.38V165.646H1132.23Z" fill="#295F4E"/>
<path d="M1057.82 165.646V30.3387H1033.44V3.75684H1117.98V30.3387H1093.8V165.646H1057.82Z" fill="#295F4E"/>
<path d="M974.054 168.044C961.929 168.044 952.336 165.912 945.274 161.648C938.212 157.384 933.149 151.255 930.084 143.261C927.02 135.266 925.487 125.739 925.487 114.68V54.5214C925.487 43.329 927.02 33.8022 930.084 25.9409C933.149 18.0797 938.212 12.0838 945.274 7.95324C952.336 3.68949 961.929 1.55762 974.054 1.55762C986.313 1.55762 995.973 3.68949 1003.03 7.95324C1010.23 12.0838 1015.36 18.0797 1018.42 25.9409C1021.49 33.8022 1023.02 43.329 1023.02 54.5214V114.68C1023.02 125.739 1021.49 135.266 1018.42 143.261C1015.36 151.255 1010.23 157.384 1003.03 161.648C995.973 165.912 986.313 168.044 974.054 168.044ZM974.054 142.661C977.785 142.661 980.516 141.728 982.249 139.863C983.981 137.998 985.113 135.599 985.646 132.668C986.179 129.737 986.446 126.739 986.446 123.674V45.7274C986.446 42.5296 986.179 39.5316 985.646 36.7336C985.113 33.8022 983.981 31.4039 982.249 29.5385C980.516 27.6731 977.785 26.7404 974.054 26.7404C970.59 26.7404 967.992 27.6731 966.26 29.5385C964.527 31.4039 963.395 33.8022 962.862 36.7336C962.329 39.5316 962.062 42.5296 962.062 45.7274V123.674C962.062 126.739 962.262 129.737 962.662 132.668C963.195 135.599 964.261 137.998 965.86 139.863C967.592 141.728 970.324 142.661 974.054 142.661Z" fill="#295F4E"/>
<path d="M856.947 168.044C844.822 168.044 835.228 165.912 828.166 161.648C821.105 157.384 816.041 151.255 812.977 143.261C809.912 135.266 808.38 125.739 808.38 114.68V54.5214C808.38 43.329 809.912 33.8022 812.977 25.9409C816.041 18.0797 821.105 12.0838 828.166 7.95324C835.228 3.68949 844.822 1.55762 856.947 1.55762C869.205 1.55762 878.865 3.68949 885.927 7.95324C893.122 12.0838 898.252 18.0797 901.316 25.9409C904.381 33.8022 905.913 43.329 905.913 54.5214V114.68C905.913 125.739 904.381 135.266 901.316 143.261C898.252 151.255 893.122 157.384 885.927 161.648C878.865 165.912 869.205 168.044 856.947 168.044ZM856.947 142.661C860.678 142.661 863.409 141.728 865.141 139.863C866.873 137.998 868.006 135.599 868.539 132.668C869.072 129.737 869.338 126.739 869.338 123.674V45.7274C869.338 42.5296 869.072 39.5316 868.539 36.7336C868.006 33.8022 866.873 31.4039 865.141 29.5385C863.409 27.6731 860.678 26.7404 856.947 26.7404C853.483 26.7404 850.884 27.6731 849.152 29.5385C847.42 31.4039 846.287 33.8022 845.754 36.7336C845.221 39.5316 844.955 42.5296 844.955 45.7274V123.674C844.955 126.739 845.155 129.737 845.555 132.668C846.088 135.599 847.153 137.998 848.752 139.863C850.485 141.728 853.216 142.661 856.947 142.661Z" fill="#295F4E"/>
<path d="M723.919 165.646V3.75684H793.871V27.9403H759.695V68.7124H789.474V93.6954H759.695V165.646H723.919Z" fill="#295F4E"/>
<path d="M592.974 168.043C585.513 168.043 578.851 166.511 572.988 163.447C567.258 160.249 562.728 155.785 559.397 150.056C556.199 144.193 554.6 137.265 554.6 129.27C554.6 119.01 556.732 110.016 560.996 102.288C565.393 94.5604 570.923 87.232 577.585 80.3035C574.92 75.5067 572.322 70.71 569.79 65.9133C567.259 60.9833 565.193 56.12 563.594 51.3233C562.129 46.3933 561.396 41.5966 561.396 36.9331C561.396 30.271 562.728 24.2751 565.393 18.9454C568.191 13.6157 572.188 9.35196 577.385 6.15414C582.715 2.95633 589.177 1.35742 596.772 1.35742C603.7 1.35742 609.763 2.82308 614.959 5.75442C620.156 8.5525 624.22 12.5498 627.151 17.7462C630.215 22.9427 631.748 28.9386 631.748 35.7339C631.748 43.1955 630.215 49.791 627.151 55.5204C624.22 61.2498 620.622 66.4463 616.358 71.1097C612.228 75.64 608.231 80.037 604.366 84.3007L623.354 119.876C624.553 117.745 625.552 114.747 626.351 110.883C627.284 106.885 627.95 102.622 628.35 98.0913C628.883 93.5611 629.216 89.5638 629.349 86.0995H651.334C651.334 93.9608 650.801 100.889 649.735 106.885C648.803 112.881 647.404 118.344 645.538 123.274C643.806 128.204 641.674 133.001 639.143 137.664C640.475 139.396 642.341 140.862 644.739 142.061C647.27 143.26 649.802 143.993 652.334 144.26V168.043C651.401 168.177 650.468 168.31 649.536 168.443C648.603 168.576 647.67 168.643 646.738 168.643C643.406 168.643 640.142 167.91 636.944 166.445C633.88 165.112 631.082 163.38 628.55 161.248C626.018 158.983 623.82 156.718 621.954 154.453C618.623 158.717 614.493 162.048 609.563 164.446C604.766 166.844 599.237 168.043 592.974 168.043ZM594.173 146.258C597.105 146.258 599.77 145.526 602.168 144.06C604.7 142.461 606.831 140.396 608.564 137.864L588.777 101.289C585.846 105.953 583.714 110.483 582.382 114.88C581.049 119.144 580.383 123.474 580.383 127.871C580.383 131.335 580.916 134.466 581.982 137.265C583.048 140.063 584.58 142.261 586.579 143.86C588.711 145.459 591.242 146.258 594.173 146.258ZM595.173 67.1125C597.038 64.5809 598.837 61.4497 600.569 57.7189C602.301 53.9881 603.7 50.1241 604.766 46.1268C605.965 41.9963 606.565 38.3322 606.565 35.1343C606.565 31.67 605.632 29.0052 603.767 27.1398C601.902 25.2744 599.703 24.3417 597.171 24.3417C594.373 24.3417 592.108 25.4743 590.376 27.7394C588.644 30.0045 587.778 33.0691 587.778 36.9331C587.778 42.396 588.577 47.7923 590.176 53.122C591.775 58.3185 593.441 62.982 595.173 67.1125Z" fill="#295F4E"/>
<path d="M447.967 168.044C437.841 168.044 429.38 166.245 422.585 162.647C415.789 159.05 410.659 153.52 407.195 146.059C403.731 138.464 401.799 128.671 401.399 116.679L431.978 112.082C432.111 119.011 432.711 124.607 433.777 128.871C434.976 133.134 436.575 136.199 438.574 138.064C440.706 139.93 443.237 140.862 446.168 140.862C449.899 140.862 452.298 139.597 453.364 137.065C454.563 134.533 455.162 131.869 455.162 129.07C455.162 122.408 453.563 116.812 450.366 112.282C447.168 107.618 442.837 102.955 437.375 98.2915L423.384 86.0998C417.255 80.9034 412.059 75.0407 407.795 68.5118C403.664 61.8497 401.599 53.6553 401.599 43.9286C401.599 30.2047 405.663 19.7452 413.791 12.5501C421.918 5.22178 432.978 1.55762 446.968 1.55762C455.629 1.55762 462.557 3.02328 467.754 5.95461C473.083 8.88594 477.081 12.75 479.746 17.5467C482.544 22.2102 484.409 27.2067 485.342 32.5364C486.408 37.7329 487.007 42.7295 487.141 47.5262L456.362 51.3236C456.228 46.5269 455.895 42.3964 455.362 38.9321C454.962 35.3345 454.03 32.6031 452.564 30.7377C451.098 28.739 448.833 27.7397 445.769 27.7397C442.438 27.7397 439.973 29.1388 438.374 31.9368C436.908 34.7349 436.175 37.533 436.175 40.3311C436.175 46.327 437.574 51.257 440.372 55.121C443.304 58.8518 447.101 62.7824 451.765 66.9129L465.156 78.7049C472.217 84.7008 478.147 91.4961 482.943 99.0909C487.873 106.686 490.338 116.079 490.338 127.272C490.338 134.866 488.606 141.795 485.142 148.057C481.678 154.187 476.748 159.05 470.352 162.647C464.09 166.245 456.628 168.044 447.967 168.044Z" fill="#295F4E"/>
<path d="M330.585 165.646V30.3387H306.202V3.75684H390.744V30.3387H366.56V165.646H330.585Z" fill="#295F4E"/>
<path d="M203.961 165.646V3.75684H229.144L262.321 81.7036V3.75684H291.901V165.646H267.718L234.54 81.7036V165.646H203.961Z" fill="#295F4E"/>
<path d="M133.223 168.044C121.098 168.044 111.504 165.912 104.442 161.648C97.3806 157.384 92.3174 151.255 89.2529 143.261C86.1883 135.266 84.656 125.739 84.656 114.68V54.5214C84.656 43.329 86.1883 33.8022 89.2529 25.9409C92.3174 18.0797 97.3806 12.0838 104.442 7.95324C111.504 3.68949 121.098 1.55762 133.223 1.55762C145.481 1.55762 155.141 3.68949 162.203 7.95324C169.398 12.0838 174.528 18.0797 177.592 25.9409C180.657 33.8022 182.189 43.329 182.189 54.5214V114.68C182.189 125.739 180.657 135.266 177.592 143.261C174.528 151.255 169.398 157.384 162.203 161.648C155.141 165.912 145.481 168.044 133.223 168.044ZM133.223 142.661C136.954 142.661 139.685 141.728 141.417 139.863C143.149 137.998 144.282 135.599 144.815 132.668C145.348 129.737 145.614 126.739 145.614 123.674V45.7274C145.614 42.5296 145.348 39.5316 144.815 36.7336C144.282 33.8022 143.149 31.4039 141.417 29.5385C139.685 27.6731 136.954 26.7404 133.223 26.7404C129.759 26.7404 127.16 27.6731 125.428 29.5385C123.696 31.4039 122.563 33.8022 122.03 36.7336C121.497 39.5316 121.231 42.5296 121.231 45.7274V123.674C121.231 126.739 121.431 129.737 121.831 132.668C122.364 135.599 123.429 137.998 125.028 139.863C126.761 141.728 129.492 142.661 133.223 142.661Z" fill="#295F4E"/>
<path d="M0.194336 165.646V3.75684H70.1465V27.9403H35.9699V68.7124H65.7495V93.6954H35.9699V165.646H0.194336Z" fill="#295F4E"/>
<g clip-path="url(#clip0_55_38)">
<path d="M1487.88 166.178L1487.88 3.1499L1650.91 84.664L1487.88 166.178Z" fill="#AEFF12"/>
<path d="M1485.07 166.178L1485.07 3.14969C1485.07 2.30644 1485.63 1.18222 1486.47 0.619941C1487.32 0.0576661 1488.44 0.0576662 1489.28 0.619941L1652.31 82.134C1654.28 82.9773 1654.28 86.0693 1652.31 87.1935L1489.28 168.708C1488.44 169.27 1487.32 168.989 1486.47 168.708C1485.63 168.426 1485.07 167.021 1485.07 166.178ZM1490.69 7.6469L1490.69 161.68L1644.72 84.6638L1490.69 7.6469Z" fill="#295F4E"/>
</g>
<g clip-path="url(#clip1_55_38)">
<path d="M1653.77 166.178L1653.77 3.1499L1816.8 84.664L1653.77 166.178Z" fill="#AEFF12"/>
<path d="M1650.96 166.178L1650.96 3.14969C1650.96 2.30644 1651.53 1.18222 1652.37 0.619941C1653.21 0.0576661 1654.34 0.0576662 1655.18 0.619941L1818.21 82.134C1820.18 82.9773 1820.18 86.0693 1818.21 87.1935L1655.18 168.708C1654.34 169.27 1653.21 168.989 1652.37 168.708C1651.53 168.426 1650.96 167.021 1650.96 166.178ZM1656.59 7.6469L1656.59 161.68L1810.62 84.6638L1656.59 7.6469Z" fill="#295F4E"/>
</g>
<g clip-path="url(#clip2_55_38)">
<path d="M1819.67 166.178L1819.67 3.1499L1982.7 84.664L1819.67 166.178Z" fill="#AEFF12"/>
<path d="M1816.86 166.178L1816.86 3.14969C1816.86 2.30644 1817.42 1.18222 1818.27 0.619941C1819.11 0.0576661 1820.23 0.0576662 1821.08 0.619941L1984.1 82.134C1986.07 82.9773 1986.07 86.0693 1984.1 87.1935L1821.08 168.708C1820.23 169.27 1819.11 168.989 1818.27 168.708C1817.42 168.426 1816.86 167.021 1816.86 166.178ZM1822.48 7.6469L1822.48 161.68L1976.51 84.6638L1822.48 7.6469Z" fill="#295F4E"/>
</g>
<defs>
<clipPath id="clip0_55_38">
<rect width="168.834" height="168.834" fill="white" transform="translate(1653.84 0.198242) rotate(90)"/>
</clipPath>
<clipPath id="clip1_55_38">
<rect width="168.834" height="168.834" fill="white" transform="translate(1819.74 0.198242) rotate(90)"/>
</clipPath>
<clipPath id="clip2_55_38">
<rect width="168.834" height="168.834" fill="white" transform="translate(1985.64 0.198242) rotate(90)"/>
</clipPath>
</defs>
</svg>
