<svg  viewBox="0 0 163 122" fill="none" xmlns="http://www.w3.org/2000/svg">
<rect x="95.1797" y="2.09912" width="19.2512" height="55.8779" stroke="currentColor"/>
<rect x="73.1934" y="69.9263" width="84.0779" height="22.8982" stroke="currentColor"/>
<rect x="31.1328" y="69.9263" width="12.3828" height="22.8982" stroke="currentColor"/>
<rect x="51.2065" y="57.9771" width="110.844" height="34.8474" stroke="currentColor"/>
<line x1="114.412" y1="25.8483" x2="162.209" y2="57.872" stroke="currentColor"/>
<line x1="0.0424805" y1="92.8245" x2="162.551" y2="92.8245" stroke="currentColor"/>
<line x1="94.9692" y1="11.1894" x2="25.1865" y2="60.7402" stroke="currentColor"/>
<line x1="25.397" y1="60.3325" x2="25.397" y2="92.7405" stroke="currentColor"/>
<line x1="79.6761" y1="1.00549" x2="0.334039" y2="57.8834" stroke="currentColor"/>
<line x1="0.54248" y1="92.7405" x2="0.542482" y2="57.4771" stroke="currentColor"/>
<line x1="94.4026" y1="11.1979" x2="79.1074" y2="1.01532" stroke="currentColor"/>
<path d="M156.841 121.14C155.621 121.14 154.602 120.906 153.783 120.438C152.964 119.954 152.345 119.252 151.928 118.333C151.51 117.413 151.276 116.285 151.226 114.948L154.409 114.321C154.443 115.107 154.535 115.801 154.685 116.402C154.852 117.004 155.095 117.472 155.412 117.806C155.746 118.124 156.181 118.282 156.716 118.282C157.317 118.282 157.744 118.107 157.994 117.756C158.245 117.388 158.37 116.929 158.37 116.377C158.37 115.491 158.17 114.764 157.769 114.196C157.368 113.628 156.833 113.06 156.164 112.491L153.607 110.235C152.889 109.617 152.312 108.932 151.877 108.179C151.46 107.411 151.251 106.466 151.251 105.347C151.251 103.742 151.719 102.505 152.655 101.636C153.59 100.767 154.869 100.333 156.49 100.333C157.443 100.333 158.237 100.483 158.872 100.784C159.507 101.068 160.008 101.469 160.376 101.987C160.76 102.505 161.044 103.099 161.228 103.767C161.412 104.419 161.529 105.113 161.579 105.848L158.42 106.4C158.387 105.764 158.312 105.196 158.195 104.695C158.095 104.193 157.902 103.801 157.618 103.517C157.351 103.232 156.95 103.09 156.415 103.09C155.863 103.09 155.437 103.274 155.136 103.642C154.852 103.993 154.71 104.436 154.71 104.971C154.71 105.656 154.852 106.224 155.136 106.675C155.421 107.11 155.83 107.561 156.365 108.029L158.897 110.26C159.732 110.962 160.443 111.789 161.028 112.742C161.629 113.678 161.93 114.814 161.93 116.152C161.93 117.121 161.713 117.982 161.278 118.734C160.861 119.486 160.267 120.079 159.498 120.514C158.746 120.931 157.861 121.14 156.841 121.14Z" fill="currentColor"/>
<path d="M138.476 120.865V100.558H143.339C144.709 100.558 145.863 100.725 146.799 101.06C147.751 101.377 148.47 101.929 148.955 102.714C149.456 103.5 149.707 104.569 149.707 105.923C149.707 106.742 149.631 107.477 149.481 108.129C149.331 108.781 149.072 109.341 148.704 109.809C148.353 110.26 147.86 110.611 147.225 110.862L150.058 120.865H146.347L143.891 111.564H142.186V120.865H138.476ZM142.186 109.232H143.339C144.058 109.232 144.626 109.132 145.044 108.932C145.478 108.714 145.787 108.38 145.971 107.929C146.155 107.461 146.247 106.867 146.247 106.149C146.247 105.129 146.055 104.369 145.67 103.868C145.303 103.349 144.593 103.09 143.54 103.09H142.186V109.232Z" fill="currentColor"/>
<path d="M128.505 120.865V100.558H137.028V103.166H132.215V109.007H136V111.589H132.215V118.307H137.078V120.865H128.505Z" fill="currentColor"/>
<path d="M120.516 120.865V103.291H117.282V100.558H127.41V103.291H124.226V120.865H120.516Z" fill="currentColor"/>
<path d="M110.724 121.14C109.287 121.14 108.142 120.873 107.29 120.338C106.437 119.803 105.827 119.034 105.46 118.032C105.092 117.029 104.908 115.842 104.908 114.472V106.876C104.908 105.505 105.092 104.336 105.46 103.366C105.827 102.38 106.437 101.628 107.29 101.11C108.142 100.592 109.287 100.333 110.724 100.333C112.195 100.333 113.348 100.592 114.184 101.11C115.036 101.628 115.646 102.38 116.014 103.366C116.398 104.336 116.591 105.505 116.591 106.876V114.497C116.591 115.851 116.398 117.029 116.014 118.032C115.646 119.018 115.036 119.787 114.184 120.338C113.348 120.873 112.195 121.14 110.724 121.14ZM110.724 118.408C111.343 118.408 111.794 118.274 112.078 118.007C112.379 117.739 112.579 117.372 112.68 116.904C112.78 116.436 112.83 115.926 112.83 115.374V106.024C112.83 105.455 112.78 104.946 112.68 104.494C112.579 104.043 112.379 103.692 112.078 103.441C111.794 103.174 111.343 103.04 110.724 103.04C110.139 103.04 109.696 103.174 109.396 103.441C109.095 103.692 108.894 104.043 108.794 104.494C108.694 104.946 108.644 105.455 108.644 106.024V115.374C108.644 115.926 108.685 116.436 108.769 116.904C108.869 117.372 109.07 117.739 109.371 118.007C109.671 118.274 110.123 118.408 110.724 118.408Z" fill="currentColor"/>
<path d="M97.3508 121.14C95.9134 121.14 94.7686 120.873 93.9163 120.338C93.0639 119.803 92.4539 119.034 92.0862 118.032C91.7185 117.029 91.5347 115.842 91.5347 114.472V106.876C91.5347 105.505 91.7185 104.336 92.0862 103.366C92.4539 102.38 93.0639 101.628 93.9163 101.11C94.7686 100.592 95.9134 100.333 97.3508 100.333C98.8215 100.333 99.9747 100.592 100.81 101.11C101.663 101.628 102.273 102.38 102.64 103.366C103.025 104.336 103.217 105.505 103.217 106.876V114.497C103.217 115.851 103.025 117.029 102.64 118.032C102.273 119.018 101.663 119.787 100.81 120.338C99.9747 120.873 98.8215 121.14 97.3508 121.14ZM97.3508 118.408C97.9691 118.408 98.4204 118.274 98.7045 118.007C99.0053 117.739 99.2059 117.372 99.3062 116.904C99.4064 116.436 99.4566 115.926 99.4566 115.374V106.024C99.4566 105.455 99.4064 104.946 99.3062 104.494C99.2059 104.043 99.0053 103.692 98.7045 103.441C98.4204 103.174 97.9691 103.04 97.3508 103.04C96.7658 103.04 96.3229 103.174 96.0221 103.441C95.7212 103.692 95.5207 104.043 95.4204 104.494C95.3201 104.946 95.27 105.455 95.27 106.024V115.374C95.27 115.926 95.3118 116.436 95.3953 116.904C95.4956 117.372 95.6962 117.739 95.997 118.007C96.2978 118.274 96.7491 118.408 97.3508 118.408Z" fill="currentColor"/>
<path d="M82.2327 120.865V100.558H90.5808V103.115H85.9429V109.032H89.7284V111.614H85.9429V120.865H82.2327Z" fill="currentColor"/>
<path d="M67.2141 121.14C66.2782 121.14 65.4592 120.948 64.7573 120.564C64.0721 120.163 63.5372 119.611 63.1528 118.909C62.7852 118.191 62.6013 117.355 62.6013 116.402C62.6013 115.115 62.8771 113.996 63.4286 113.043C63.9968 112.09 64.6988 111.213 65.5344 110.411C65.2169 109.809 64.891 109.207 64.5567 108.606C64.2225 107.987 63.9467 107.361 63.7294 106.726C63.5122 106.091 63.4035 105.447 63.4035 104.795C63.4035 103.926 63.579 103.157 63.93 102.489C64.281 101.82 64.7823 101.294 65.4342 100.91C66.086 100.508 66.8715 100.308 67.7907 100.308C68.643 100.308 69.3868 100.475 70.0218 100.809C70.6736 101.144 71.1917 101.62 71.5761 102.238C71.9605 102.84 72.1527 103.55 72.1527 104.369C72.1527 105.272 71.9522 106.107 71.5511 106.876C71.1667 107.645 70.6987 108.347 70.1472 108.982C69.5957 109.6 69.0608 110.177 68.5427 110.712L71.2502 115.349C71.4174 115.049 71.5594 114.664 71.6764 114.196C71.7934 113.728 71.8853 113.227 71.9522 112.692C72.0357 112.157 72.0942 111.664 72.1277 111.213H74.8351C74.8351 112.032 74.7516 112.809 74.5845 113.544C74.434 114.28 74.2251 114.965 73.9577 115.6C73.6903 116.219 73.3978 116.795 73.0803 117.33C73.2809 117.564 73.5399 117.773 73.8574 117.957C74.1917 118.124 74.5427 118.216 74.9104 118.232V121.115C74.8101 121.132 74.7098 121.14 74.6095 121.14C74.526 121.157 74.4424 121.166 74.3588 121.166C73.9076 121.149 73.4898 121.049 73.1054 120.865C72.721 120.664 72.37 120.422 72.0525 120.138C71.7349 119.854 71.4508 119.569 71.2001 119.285C70.7656 119.837 70.214 120.288 69.5455 120.639C68.877 120.973 68.0999 121.14 67.2141 121.14ZM67.2893 118.634C67.7907 118.634 68.2252 118.508 68.5929 118.258C68.9606 118.007 69.2781 117.714 69.5455 117.38L66.7628 112.692C66.3784 113.244 66.086 113.829 65.8854 114.447C65.6848 115.049 65.5846 115.675 65.5846 116.327C65.5846 116.728 65.6431 117.113 65.7601 117.48C65.877 117.831 66.0609 118.115 66.3116 118.333C66.5623 118.533 66.8882 118.634 67.2893 118.634ZM67.4898 108.907C67.774 108.539 68.0497 108.096 68.3171 107.578C68.5845 107.06 68.8018 106.517 68.9689 105.948C69.1361 105.38 69.2196 104.837 69.2196 104.319C69.2196 103.868 69.0859 103.517 68.8185 103.266C68.5511 102.999 68.2168 102.865 67.8157 102.865C67.3478 102.865 66.9968 103.057 66.7628 103.442C66.5288 103.809 66.4119 104.26 66.4119 104.795C66.4119 105.514 66.5288 106.233 66.7628 106.951C66.9968 107.653 67.2391 108.305 67.4898 108.907Z" fill="currentColor"/>
<path d="M51.0618 121.14C49.8418 121.14 48.8223 120.906 48.0034 120.438C47.1844 119.954 46.5661 119.252 46.1482 118.333C45.7304 117.413 45.4964 116.285 45.4463 114.948L48.6301 114.321C48.6635 115.107 48.7554 115.801 48.9059 116.402C49.073 117.004 49.3153 117.472 49.6329 117.806C49.9671 118.124 50.4017 118.282 50.9365 118.282C51.5381 118.282 51.9643 118.107 52.215 117.756C52.4657 117.388 52.591 116.929 52.591 116.377C52.591 115.491 52.3905 114.764 51.9894 114.196C51.5883 113.628 51.0535 113.06 50.3849 112.491L47.8279 110.235C47.1092 109.617 46.5326 108.932 46.0981 108.179C45.6803 107.411 45.4714 106.466 45.4714 105.347C45.4714 103.742 45.9393 102.505 46.8752 101.636C47.8112 100.767 49.0897 100.333 50.7108 100.333C51.6635 100.333 52.4573 100.483 53.0924 100.784C53.7275 101.068 54.2289 101.469 54.5966 101.987C54.981 102.505 55.2651 103.099 55.4489 103.767C55.6328 104.419 55.7498 105.113 55.7999 105.848L52.6412 106.4C52.6078 105.764 52.5325 105.196 52.4156 104.695C52.3153 104.193 52.1231 103.801 51.839 103.517C51.5716 103.232 51.1705 103.09 50.6356 103.09C50.0841 103.09 49.6579 103.274 49.3571 103.642C49.073 103.993 48.9309 104.436 48.9309 104.971C48.9309 105.656 49.073 106.224 49.3571 106.675C49.6412 107.11 50.0507 107.561 50.5855 108.029L53.1175 110.26C53.9531 110.962 54.6634 111.789 55.2484 112.742C55.8501 113.678 56.1509 114.814 56.1509 116.152C56.1509 117.121 55.9336 117.982 55.4991 118.734C55.0813 119.486 54.488 120.079 53.7192 120.514C52.9671 120.931 52.0813 121.14 51.0618 121.14Z" fill="currentColor"/>
<path d="M37.959 120.865V103.291H34.7251V100.558H44.8531V103.291H41.6693V120.865H37.959Z" fill="currentColor"/>
<path d="M23.0198 120.865V100.558H25.6019L30.5406 112.14V100.558H33.599V120.865H31.1422L26.1785 108.731V120.865H23.0198Z" fill="currentColor"/>
<path d="M15.1615 121.14C13.7242 121.14 12.5794 120.873 11.727 120.338C10.8747 119.803 10.2647 119.034 9.89698 118.032C9.5293 117.029 9.34546 115.842 9.34546 114.472V106.876C9.34546 105.505 9.5293 104.336 9.89698 103.366C10.2647 102.38 10.8747 101.628 11.727 101.11C12.5794 100.592 13.7242 100.333 15.1615 100.333C16.6323 100.333 17.7855 100.592 18.6211 101.11C19.4735 101.628 20.0835 102.38 20.4512 103.366C20.8356 104.336 21.0278 105.505 21.0278 106.876V114.497C21.0278 115.851 20.8356 117.029 20.4512 118.032C20.0835 119.018 19.4735 119.787 18.6211 120.338C17.7855 120.873 16.6323 121.14 15.1615 121.14ZM15.1615 118.408C15.7799 118.408 16.2312 118.274 16.5153 118.007C16.8161 117.739 17.0167 117.372 17.117 116.904C17.2172 116.436 17.2674 115.926 17.2674 115.374V106.024C17.2674 105.455 17.2172 104.946 17.117 104.494C17.0167 104.043 16.8161 103.692 16.5153 103.441C16.2312 103.174 15.7799 103.04 15.1615 103.04C14.5766 103.04 14.1337 103.174 13.8329 103.441C13.532 103.692 13.3315 104.043 13.2312 104.494C13.1309 104.946 13.0808 105.455 13.0808 106.024V115.374C13.0808 115.926 13.1226 116.436 13.2061 116.904C13.3064 117.372 13.507 117.739 13.8078 118.007C14.1086 118.274 14.5599 118.408 15.1615 118.408Z" fill="currentColor"/>
<path d="M0.0424805 120.865V100.558H8.39057V103.115H3.75274V109.032H7.53821V111.614H3.75274V120.865H0.0424805Z" fill="currentColor"/>
</svg>
