<svg viewBox="0 0 500 463" fill="currentColor" xmlns="http://www.w3.org/2000/svg">
<path fill-rule="evenodd" clip-rule="evenodd" d="M323.821 2.45959C320.618 5.86865 318.864 10.8934 317.519 20.5088C315.388 35.7418 319.235 55.6652 326.027 64.5701C329.136 68.6458 333.176 70.8243 355.034 80.2132C371.03 87.0832 381.481 93.0062 381.481 95.2007C381.481 95.8444 383.035 106.73 384.934 119.391C389.374 148.991 390.251 158.096 391.525 187.818C392.102 201.266 392.821 215.749 393.124 220.003C393.504 225.333 393.331 227.737 392.568 227.737C391.865 227.737 391.461 225.252 391.461 220.937C391.461 206.734 386.773 178.484 382.446 166.616C376.651 150.72 370.012 144.449 355.825 141.475C352.125 140.7 348.931 139.566 348.727 138.956C347.571 135.488 342.978 131.857 337.758 130.286C334.636 129.347 330.038 126.911 327.54 124.874C313.044 113.052 308.84 111.414 300.646 114.392L297.153 115.661L303.141 117.342C318.352 121.611 316.242 119.833 332.882 142.411C341.54 154.158 349.966 163.459 365.015 177.879C371.053 183.665 378.771 191.074 382.166 194.346L388.339 200.293L389.401 210.561C389.985 216.208 390.463 223.183 390.463 226.06C390.463 230.956 390.271 231.363 387.469 232.421C383.516 233.913 383.521 237.417 387.487 244.612L390.463 250.011V268.314C390.463 278.381 390.121 286.617 389.703 286.617C389.284 286.617 387.618 279.769 385.998 271.398C382.819 254.966 382.509 248.134 383.923 225.534C384.671 213.593 384.559 211.278 383.045 207.315C379.639 198.396 369.308 190.748 356.073 187.349C344.156 184.289 336.607 185.781 318.739 194.728C305.907 201.153 296.085 204.582 288.196 205.39C284.615 205.757 281.685 206.407 281.685 206.834C281.685 208.425 290.482 210.759 300.377 211.795C316.318 213.463 319.894 214.874 328.051 222.718C331.915 226.432 336.169 230.039 337.505 230.734C338.84 231.427 344.49 232.324 350.058 232.728C362.231 233.608 370.12 236.705 376.308 243.033C379.892 246.697 380.51 248.036 381.466 254.183C382.063 258.025 383.851 268.129 385.437 276.637C389.811 300.079 389.983 302.853 386.394 292.106C384.746 287.166 382.955 279.307 382.417 274.641C380.577 258.697 377.761 253.774 368.968 251.127C358.715 248.041 344.496 249.742 331.764 255.575C326.999 257.759 321.865 259.847 320.356 260.216C318.847 260.585 317.611 261.349 317.611 261.915C317.611 262.592 321.554 262.77 329.122 262.436L340.633 261.928L345.26 267.345C347.806 270.324 351.72 273.83 353.958 275.135C358.065 277.529 366.806 279.411 375.993 279.877L380.982 280.13L385.526 294.102L390.069 308.073L369.845 308.704C358.722 309.051 348.481 309.621 347.088 309.97L344.557 310.606V335.887V361.169L332.376 362.443C325.677 363.144 318.986 364.064 317.508 364.488L314.82 365.259L314.469 357.559C314.168 350.962 313.569 348.796 310.28 342.438C308.169 338.357 305.113 333.331 303.49 331.268C300.531 327.508 300.398 325.122 303.209 326.2C304.034 326.518 306.768 329.662 309.284 333.189C314.348 340.286 316.336 341.037 312.262 334.315C308.768 328.551 307.611 327.195 304.397 325.103C302.892 324.124 301.908 322.923 302.211 322.435C303.052 321.072 309.645 321.374 310.022 322.793C311.651 328.921 312.425 330.169 315.587 331.752C321.193 334.558 321.981 337.193 321.255 350.697C320.907 357.168 321.009 362.462 321.482 362.462C323.802 362.462 324.439 340.079 322.242 335.717C321.496 334.235 320.612 330.552 320.279 327.533C319.872 323.842 318.221 319.253 315.239 313.522C311.408 306.16 308.439 296.668 308.384 291.607C308.374 290.783 309.062 286.325 309.912 281.7C311.837 271.217 310.86 267.292 305.636 264.516C301.692 262.42 301.287 261.625 292.5 238.714C284.336 217.43 284.027 217.029 270.651 210.332C262.742 206.373 258.424 204.784 255.577 204.784C253.145 204.784 248.358 203.35 243.316 201.112L235.045 197.441L240.65 193.27C243.734 190.976 247.346 187.913 248.676 186.463C250.171 184.834 252.149 183.826 253.85 183.826C258.136 183.826 261.809 182.05 265.604 178.142L269.088 174.555L266.904 168.462C265.702 165.111 264.719 161.644 264.719 160.756C264.719 158.561 268.134 149.936 272.544 140.993C276.082 133.819 276.196 133.246 276.196 122.531C276.196 112.264 275.985 111.058 273.25 105.659C271.63 102.462 267.707 97.012 264.534 93.5481L258.761 87.2499L264.185 86.5723C270.895 85.734 275.967 82.4956 276.823 78.5027C277.172 76.877 277.51 72.7374 277.575 69.3024C277.68 63.7557 277.405 62.8087 275.114 60.8197C273.696 59.5892 271.01 56.4586 269.145 53.8649C265.228 48.416 261.649 46.959 258.712 49.6175C256.943 51.2183 256.723 51.2283 256.151 49.7353C255.806 48.8371 254.854 48.1026 254.035 48.1026C253.217 48.1026 251.237 46.7005 249.636 44.987C247.069 42.2396 246.345 41.9681 243.497 42.6887C241.722 43.1377 237.477 43.4062 234.064 43.2844C228.284 43.0789 227.655 43.2775 224.88 46.1805C221.108 50.1275 218.39 58.0833 219.17 62.8895C219.633 65.7417 219.299 66.9822 217.571 68.8204C215.865 70.6367 215.62 71.5179 216.453 72.8472C217.039 73.7833 218.438 74.6865 219.561 74.8541C221.385 75.1276 222.753 77.5716 222.791 80.6284C222.799 81.2272 220.896 82.288 218.563 82.9846C208.128 86.1022 197.662 94.6169 193.297 103.54C190.793 108.657 190.638 109.831 190.508 124.687C190.293 149.339 190.842 154.205 194.243 157.753L197.09 160.726L195.442 168.136C193.66 176.146 188.492 187.83 184.303 193.323C181.998 196.345 181.198 196.727 177.505 196.566C173.804 196.405 172.597 196.984 167.097 201.562C162.711 205.212 159.189 207.205 155.164 208.313C145.947 210.853 141.924 212.941 137 217.737C128.087 226.417 119.83 246.041 118.004 262.878C117.51 267.427 116.432 274.292 115.608 278.134C114.783 281.976 114.117 288.724 114.128 293.129C114.139 297.533 113.727 302.248 113.213 303.607C112.699 304.965 111.949 308.478 111.548 311.413C110.909 316.081 110.394 317 107.433 318.747C104.254 320.623 102.966 323.753 104.884 324.939C105.344 325.224 105.159 328.182 104.473 331.512C103.358 336.924 103.45 338.494 105.334 346.273C107.607 355.654 107.763 356.085 108.577 355.271C108.874 354.975 108.424 351.419 107.58 347.37C106.735 343.321 106.043 339.776 106.043 339.492C106.042 339.209 107.732 338.932 109.796 338.878C112.104 338.818 117.004 337.042 122.52 334.268C134.666 328.158 138.154 327.162 144.704 327.932C150.571 328.621 153.726 329.92 155.659 332.436C156.463 333.483 156.886 333.597 156.907 332.773C156.953 330.972 158.611 331.239 159.351 333.165C160.308 335.659 159.647 335.757 153.162 334.076C149.867 333.222 145.663 332.525 143.821 332.527C137.853 332.533 130.337 338.867 131.169 343.19C131.432 344.549 132.027 344.101 133.677 341.304C136.825 335.969 140.932 334.155 147.846 335.044L153.446 335.764L148.783 337.145C145.412 338.144 142.967 339.835 139.949 343.258C132.093 352.169 130.317 358.071 134.058 362.827C136.898 366.438 138.562 366.166 135.874 362.529C132.985 358.623 133.824 354.699 139.014 347.824C144.147 341.026 146.044 339.848 153.886 338.592C161.21 337.419 163.023 337.87 157.241 339.427C151.365 341.01 146.94 346.315 145.596 353.392C145.24 355.264 144.028 357.441 142.903 358.228C139.419 360.668 141.004 363.51 150.257 371.418L159.044 378.929L155.352 379.247C152.129 379.525 151.073 378.997 147.063 375.101C141.426 369.623 135.31 365.456 132.905 365.456C131.915 365.456 130.45 364.521 129.65 363.379C127.624 360.488 106.243 355.229 96.0627 355.118C89.6058 355.048 87.8584 355.432 83.3366 357.912C75.0515 362.455 68.3312 372.17 66.1486 382.757C65.0708 387.987 64.7285 388.526 62.7914 388.042C57.3625 386.686 42.6275 384.435 38.1406 384.276C31.1409 384.028 30.9742 385.045 37.8852 385.836C41.0667 386.199 48.4756 387.236 54.3486 388.138L65.0289 389.779L65.6845 395.331C66.5158 402.371 69.3541 408.973 73.303 413.054L76.3887 416.243L73.6344 416.934C69.1146 418.068 51.198 416.589 43.1704 414.419C34.8943 412.181 27.6889 411.766 26.6381 413.465C26.165 414.231 26.8926 414.365 29.0132 413.899C30.9822 413.466 35.7844 414.139 42.4968 415.788C50.9196 417.857 55.3895 418.352 65.7604 418.363C76.8199 418.377 82.7568 419.251 81.0642 420.615C80.8057 420.823 75.2052 421.777 68.6186 422.735C50.6102 425.351 35.1867 428.445 35.1867 429.44C35.1867 430.683 36.3413 430.58 48.1602 428.274C53.9235 427.151 64.2525 425.363 71.1135 424.303C82.1131 422.603 84.0601 422.54 87.5799 423.766C89.7755 424.532 95.389 426.165 100.055 427.395C108.173 429.538 112.202 431.322 108.918 431.322C104.857 431.322 97.2073 434.625 93.8462 437.831C90.2904 441.222 90.1547 441.594 90.6467 446.577C90.9301 449.438 91.1716 452.536 91.1836 453.46C91.2165 455.856 97.1245 460.044 102.03 461.145C104.487 461.697 108.537 461.734 111.863 461.235C114.974 460.767 122.01 459.706 127.499 458.875C132.987 458.045 145.786 456.861 155.941 456.244C169.086 455.447 176.99 454.451 183.385 452.786C188.325 451.501 196.512 450.14 201.579 449.763C210.52 449.097 210.883 449.153 213.881 451.676C217.636 454.835 217.544 454.834 231.786 451.873C251.834 447.706 253.542 447.657 260.318 451.06C265.036 453.43 267.914 454.121 274.699 454.513C281.321 454.895 284.932 455.735 291.165 458.345C299.013 461.63 299.446 461.693 316.613 462.06C344.388 462.655 357.818 460.353 359.057 454.784C359.303 453.682 359.705 448.576 359.951 443.439C360.374 434.621 360.267 433.968 358.012 431.713C356.636 430.338 354.442 429.324 352.835 429.322L350.045 429.319L353.538 427.224C355.459 426.073 358.244 423.992 359.725 422.6L362.418 420.069L366.211 421.953C369.539 423.606 372.394 423.837 389.465 423.837C405.642 423.837 409.557 423.551 412.668 422.142C419.295 419.139 417.11 413.359 409.347 413.359H406.143L410.665 409.906C423.281 400.273 431.86 384.97 434.37 367.621C434.899 363.96 435.341 349.674 435.352 335.874C435.37 312.89 435.225 310.725 433.625 310.1C432.665 309.726 424.356 309.16 415.163 308.844C403.298 308.434 398.447 307.925 398.447 307.089C398.447 305.124 405.263 264.498 405.659 264.103C405.862 263.899 408.611 265.289 411.768 267.191C414.925 269.094 417.871 270.649 418.314 270.649C420.086 270.649 434.469 236.057 435.925 228.293C436.743 223.938 435.72 220.816 433.166 219.871C431.37 219.206 431.712 218.749 436.13 215.915C445.032 210.202 449.98 204.245 474.791 169.356C487.178 151.938 497.366 133.574 498.902 125.894L499.527 122.773L494.513 125.312C491.756 126.71 482.822 130.598 474.661 133.953C453.148 142.796 435.249 153.157 416.909 167.38C406.021 175.824 400.826 181.731 396.974 190.049L393.714 197.086L393.06 185.217C392.7 178.689 391.905 166.759 391.293 158.706L390.182 144.064L392.721 139.731C395.866 134.365 404.114 126.478 411.552 121.727C418.749 117.129 421.228 113.751 426.404 101.494C434.54 82.2231 438.74 75.9399 448.279 68.7695C454.424 64.1499 457.693 63.0671 470.144 61.5243C477.024 60.672 475.522 58.6521 468.008 58.6521C464.028 58.6521 460.894 59.5343 455.107 62.2817C443.445 67.8205 436.049 73.3213 422.405 86.6042C415.54 93.2876 408.447 99.986 406.644 101.491C402.632 104.838 401.552 106.895 397.472 118.958C395.708 124.173 393.106 130.451 391.689 132.91L389.112 137.381L386.929 122.431C385.729 114.209 384.161 103.791 383.445 99.2804L382.144 91.0801L385.745 83.8119C388.401 78.4498 391.468 74.452 397.444 68.561C413.093 53.1334 420.775 41.1967 422.066 30.3069C422.911 23.1654 418.558 0.200195 416.358 0.200195C413.484 0.200195 405.627 6.00038 401.601 11.093C391.416 23.9788 383.058 45.0718 380.016 65.5671L378.832 73.5508L377.067 67.58C372.822 53.2152 368.468 46.1386 348.504 21.1575C336.287 5.87164 330.666 0.200195 327.731 0.200195C326.748 0.200195 324.988 1.21712 323.821 2.45959ZM418.469 11.2257C419.532 16.3054 420.402 21.2294 420.402 22.1655C420.402 23.1295 417.94 25.5037 414.729 27.6363C401.026 36.7338 389.291 51.6444 384.876 65.5671C383.827 68.8773 383.599 69.1118 383.544 66.9443C383.43 62.5043 389.422 44.007 393.527 36.127C395.67 32.0104 399.878 25.3859 402.876 21.407C408.317 14.1857 409.335 11.7197 404.73 16.9161C394.712 28.2211 387.615 42.9152 383.399 61.0762C381.277 70.2236 380.936 67.3045 382.994 57.5923C386.379 41.6109 393.94 23.6405 401.572 13.4332C405.005 8.8416 415.166 0.619341 416.168 1.6213C416.37 1.82289 417.405 6.14509 418.469 11.2257ZM332.576 4.83975C337.278 8.79669 356.934 33.3986 365.443 45.977C369.613 52.1424 375.054 63.8446 374.164 64.7338C373.923 64.9753 372.803 63.6899 371.676 61.8776C369.007 57.5843 362.567 51.4558 354.805 45.8203C348.003 40.8823 332.768 33.1281 329.895 33.1411C328.902 33.1461 332.805 35.5043 338.569 38.3804C357.592 47.8771 369.032 58.1392 375.463 71.478C377.6 75.911 379.616 81.3349 379.943 83.5305C380.49 87.21 380.127 86.8188 375.301 78.5406C368.799 67.3893 357.611 55.8089 348.548 50.85C341.559 47.0258 330.38 42.8024 324.348 41.7067C318.415 40.6288 320.005 42.6607 326.174 44.0409C333.389 45.6556 344.701 50.3411 350.737 54.2142C358.222 59.0164 369.453 71.6916 374.246 80.7461C376.578 85.1522 378.487 88.9973 378.487 89.2907C378.487 89.5851 376.129 88.5672 373.248 87.0303C370.367 85.4925 361.048 81.2601 352.54 77.6235C331.49 68.6268 329.69 67.5101 325.808 61.0483C320.206 51.7213 319.099 46.4759 319.181 29.6402C319.237 18.0768 319.64 13.6598 320.954 10.2298C324.193 1.767 327.243 0.352884 332.576 4.83975ZM420.129 31.4994C419.825 34.4425 418.361 39.2706 416.874 42.2276C413.853 48.2393 404.817 59.7689 400.062 63.6779C395 67.8404 386.7 78.0267 384.362 82.9467C381.367 89.2528 380.984 86.8028 383.387 76.6884C387.161 60.7988 392.617 50.4 402.762 39.7626C407.979 34.2918 418.155 26.1593 419.793 26.1513C420.281 26.1493 420.433 28.5554 420.129 31.4994ZM236.535 45.8542C237.774 46.1227 240.09 45.8023 241.683 45.1427C245.096 43.7295 248.255 44.964 249.251 48.1016C249.645 49.3451 250.761 50.0986 252.205 50.0986C256.67 50.0986 256.863 54.9108 252.73 63.1011C249.383 69.7286 250.386 71.3363 253.961 65.0761C255.213 62.8845 256.513 61.0882 256.851 61.0842C257.864 61.0712 256.198 68.3254 254.39 71.7914C252.068 76.2453 246.746 82.1453 245.657 81.4727C245.164 81.1673 244.76 78.7971 244.76 76.2044C244.76 72.3902 245.631 70.028 249.328 63.8146C251.841 59.5922 253.709 55.3399 253.478 54.3649C253.152 52.9877 252.785 53.2591 251.834 55.5834C251.161 57.227 249.496 60.0343 248.133 61.8207C244.621 66.4243 242.777 71.3124 242.682 76.2633L242.601 80.5366L241.083 77.0497C238.626 71.4052 239.693 63.4973 243.696 57.6781C245.529 55.0146 246.405 53.0396 245.645 53.2901C244.884 53.5396 242.914 55.7311 241.267 58.1591C238.628 62.0492 238.273 63.4234 238.273 69.7376C238.273 76.398 238.154 76.7942 236.588 75.3761C232.669 71.8303 232.442 60.3028 236.177 54.6024C238.205 51.5067 238.219 50.4828 236.211 52.1494C233.189 54.6573 231.472 59.5114 231.526 65.3904C231.569 70.1088 232.165 72.1457 234.701 76.2253L237.824 81.2481L234.661 79.3959C232.922 78.376 230.104 75.8172 228.399 73.7075C225.524 70.1507 225.299 69.3084 225.299 62.0861C225.299 55.8299 225.673 53.8869 227.201 52.1993C228.273 51.0137 228.593 50.0986 227.934 50.0986C227.292 50.0986 225.877 51.5586 224.789 53.342C220.64 60.1471 223.074 72.7364 229.601 78.2283C232.189 80.4058 232.409 80.9008 230.953 81.2811C227.764 82.1154 224.79 80.2392 224.14 76.9828C223.798 75.2753 222.797 73.6496 221.914 73.3692C221.032 73.0897 219.681 72.6676 218.912 72.4311C217.833 72.0998 218.004 71.481 219.667 69.7126C221.466 67.7965 221.716 66.6808 221.195 62.8775C219.918 53.5655 226.949 42.5988 232.784 44.8004C233.608 45.1107 235.295 45.5848 236.535 45.8542ZM263.528 51.363C265.206 53.3849 266.143 69.2356 264.822 73.2404C262.811 79.334 255.562 84.5793 250.853 83.3488C248.83 82.8189 248.868 82.6632 251.888 79.2232C257.085 73.3053 259.09 67.5999 258.93 59.1871C258.853 55.1293 259.028 51.4239 259.318 50.9538C260.096 49.6964 262.325 49.9129 263.528 51.363ZM273.606 62.3137C275.325 63.7418 275.694 65.1629 275.682 70.2974C275.658 80.5815 272.889 83.5963 262.495 84.6542L257.234 85.1891L260.387 83.0714C262.12 81.9078 264.536 78.84 265.754 76.2543C267.722 72.0768 267.898 70.5589 267.336 62.5821L266.703 53.6084L269.109 57.0933C270.432 59.0094 272.456 61.3586 273.606 62.3137ZM381.2 75.7822C380.97 77.2992 380.777 76.2952 380.769 73.5508C380.762 70.8064 380.949 69.5649 381.186 70.7924C381.422 72.0199 381.428 74.2653 381.2 75.7822ZM431.826 81.285C429.747 83.6183 423.09 90.8256 417.03 97.3024C406.671 108.375 400.457 116.276 400.447 118.385C400.445 118.893 401.902 117.282 403.686 114.804C407.763 109.14 419.636 96.028 420.699 96.015C421.993 95.9991 416.218 103.808 407.422 113.968C397.664 125.24 397.878 125.021 399.31 122.268C400.698 119.596 400.753 118.649 399.474 119.439C398.942 119.769 399.631 116.988 401.007 113.261C402.708 108.649 404.692 105.404 407.214 103.105C409.253 101.246 416.23 94.6229 422.716 88.3846C434.964 76.6086 438.325 73.9899 431.826 81.285ZM432.36 85.2769C430.808 88.159 427.643 95.0071 425.327 100.496C420.128 112.815 417.805 116.008 410.775 120.506C403.994 124.843 396.607 131.656 392.926 136.967C391.408 139.157 389.943 140.726 389.67 140.453C388.617 139.401 395.054 130.796 409.482 113.968C418.493 103.461 421.675 98.991 421.954 96.4571C422.148 94.6788 433.764 80.0376 434.98 80.0376C435.09 80.0376 433.911 82.3948 432.36 85.2769ZM219.114 86.4106C206.986 92.9473 198.204 102.435 194.528 112.971L192.96 117.461L192.913 113.187C192.797 102.74 202.725 91.5402 217.482 85.4725C225.683 82.1004 226.373 82.4976 219.114 86.4106ZM229.201 87.0224C225.957 88.668 221.57 91.5871 219.451 93.5091C213.96 98.489 213.607 97.8293 218.855 92.3954C224.491 86.5583 228.512 84.0374 232.195 84.0334C234.733 84.0294 234.357 84.4057 229.201 87.0224ZM246.163 89.6969C248.483 96.505 248.156 107.292 245.259 119.554C243.887 125.361 242.718 131.308 242.662 132.769C242.603 134.284 242.009 132.908 241.279 129.566C240.095 124.146 240.179 123.135 242.391 116.093C245.553 106.026 246.38 94.9921 244.439 88.7718C242.544 82.7002 244.055 83.5115 246.163 89.6969ZM248.435 87.211C248.117 88.0064 247.88 87.7698 247.833 86.6072C247.79 85.5553 248.025 84.9665 248.356 85.2979C248.688 85.6292 248.724 86.4904 248.435 87.211ZM234.704 88.7239C233.374 90.2079 230.116 93.6878 227.464 96.4581C218.316 106.015 214.821 112.624 214.821 120.37C214.821 126.413 217.654 130.875 223.388 133.866C226.086 135.272 228.505 136.559 228.763 136.726C229.588 137.259 226.424 138.883 222.383 140C219.564 140.78 218.857 141.322 219.855 141.938C220.905 142.588 220.554 143.055 218.397 143.876C214.861 145.221 212.434 144.494 209.963 141.354C207.326 138.002 206.465 138.297 208.334 141.912C210.252 145.621 209.305 145.731 205.644 142.224C203.68 140.343 202.845 138.555 202.845 136.236C202.845 134.418 202.337 132.93 201.715 132.93C200.975 132.93 200.769 134.296 201.119 136.897L201.651 140.863L198.888 139.435C195.72 137.796 194.861 134.822 194.861 125.479C194.861 113.118 200.255 102.819 211.358 93.9852C214.79 91.2537 217.929 89.0193 218.333 89.0193C218.737 89.0193 217.239 91.0023 215.004 93.4263C207.334 101.748 201.87 116.202 203.883 122.848C204.631 125.316 204.679 125.271 204.873 121.952C205.067 118.61 205.11 118.656 205.849 123.03C206.916 129.331 210.157 135.298 213.291 136.725C217.272 138.539 217.233 138.236 212.966 134.176C209.868 131.229 208.878 129.423 208.319 125.694C206.814 115.657 210.406 105.633 218.476 97.3483C225.946 89.6799 241.04 81.6573 234.704 88.7239ZM243.144 98.999C243.056 105.228 242.316 109.67 240.355 115.719C238.412 121.714 237.863 124.973 238.34 127.695L238.994 131.433L236.378 127.981C231.145 121.078 230.468 112.645 234.414 103.49C235.834 100.197 237.956 95.1877 239.131 92.3595C240.891 88.1231 241.443 87.5074 242.265 88.8666C242.814 89.7738 243.209 94.3335 243.144 98.999ZM234.781 97.1447C228.218 110.822 228.384 120.472 235.35 130.167C239.401 135.805 238.326 136.321 232.845 131.369C225.448 124.686 223.975 114.429 228.649 102.13C230.392 97.5399 237.55 87.4645 238.437 88.3517C238.646 88.5612 237.002 92.5182 234.781 97.1447ZM259.212 98.5C262.265 105.262 263.721 112.634 263.721 121.335C263.721 130.639 261.803 140.804 260.49 138.458C259.983 137.552 258.5 136.405 257.194 135.909L254.819 135.006L256.891 129.227C260.043 120.435 259.885 106.791 256.518 97.033C253.742 88.9864 255.298 89.8336 259.212 98.5ZM263.286 99.6666C267.913 109.89 268.968 116.328 268.407 130.934C268.122 138.344 267.479 145.754 266.976 147.4L266.06 150.394L264.246 146.583C262.693 143.325 262.605 142.24 263.635 139.098C265.452 133.563 266.16 115.386 264.813 108.914C264.176 105.859 262.321 100.47 260.688 96.9382C259.056 93.4063 258.447 91.4144 259.336 92.5122C260.224 93.6099 262.002 96.8294 263.286 99.6666ZM255.367 99.9969C257.546 107.219 257.497 118.869 255.253 126.719C253.25 133.732 251.492 136.003 252.553 130.207C253.462 125.247 253.44 100.591 252.522 95.5061C251.566 90.2039 253.184 92.7577 255.367 99.9969ZM251.688 111.682C251.72 116.737 251.242 124.26 250.626 128.398C249.593 135.344 249.324 135.924 247.133 135.924C244.012 135.924 244.033 133.448 247.267 120.457C248.76 114.458 249.796 107.296 249.864 102.494C249.964 95.564 250.088 95.036 250.804 98.5C251.259 100.696 251.657 106.627 251.688 111.682ZM271.526 106.983C275.002 114.23 275.718 126.288 273.157 134.432C270.786 141.97 269.933 142.039 270.868 134.617C272.205 124.011 270.352 110.99 266.081 100.995L263.737 95.5061L266.316 98.5C267.734 100.147 270.079 103.964 271.526 106.983ZM214.821 98.3782C214.821 98.5848 214.035 99.3712 213.074 100.125C211.492 101.365 211.457 101.33 212.697 99.7474C214.001 98.0848 214.821 97.5569 214.821 98.3782ZM225.367 106.068C222.378 116.134 223.667 124.093 229.365 130.749C233.5 135.579 232.181 136.293 225.365 132.915C217.785 129.16 215.201 122.151 218.177 113.418C219.608 109.217 225.808 99.7205 226.615 100.494C226.789 100.662 226.228 103.169 225.367 106.068ZM316.166 118.538C319.022 120.432 323.449 123.823 326.003 126.073C328.835 128.565 332.283 130.53 334.829 131.102C343.655 133.085 346.281 135.884 349.016 146.225L350.29 151.038L347.173 148.091C343.493 144.611 340.387 142.893 337.886 142.953C336.703 142.982 337.293 143.643 339.586 144.856C343.676 147.018 347.976 151.112 350.313 155.069C351.44 156.976 353.55 158.369 356.99 159.478C364.141 161.781 370.031 165.377 372.974 169.234C375.381 172.39 383.856 191.765 383.141 192.48C382.955 192.664 374.027 184.169 363.298 173.601C344.671 155.251 341.395 151.382 322.782 125.752C319.639 121.426 314.992 118.585 308.297 116.899C304.949 116.057 303.88 115.421 304.805 114.817C306.791 113.519 310.374 114.693 316.166 118.538ZM194.013 138.568C194.205 139.199 193.913 139.874 193.364 140.065C192.746 140.282 192.319 136.437 192.241 129.936L192.114 119.457L192.888 128.439C193.315 133.379 193.821 137.938 194.013 138.568ZM497.246 126.44C497.246 128.865 487.37 148.327 482.373 155.75L476.08 165.098L466.453 169.605C457.134 173.967 435.782 182.828 434.587 182.828C433.345 182.828 440.566 176.004 459.019 159.739C477.051 143.847 485.822 135.144 484.82 134.143C484.579 133.903 481.432 136.657 477.826 140.263C474.219 143.87 465.1 152.158 457.561 158.681C429.965 182.562 412.742 203.276 406.444 220.163L405.36 223.068L401.818 219.664C399.871 217.792 397.134 214.326 395.739 211.962C392.476 206.437 393.052 201.285 398.068 191.134C402.888 181.378 407.448 176.446 421.252 166.058C439.516 152.315 455.911 143.044 476.359 134.898C481.921 132.681 488.558 129.782 491.11 128.453C495.797 126.012 497.246 125.536 497.246 126.44ZM260.384 143.658C263.767 151.299 264.178 154.648 262.284 159.126C261.106 161.911 260.112 162.869 258.4 162.869C253.615 162.869 245.547 165.954 245.015 167.987C244.695 169.211 243.944 169.756 243.05 169.413C242.254 169.106 240.966 168.857 240.187 168.857C239.409 168.857 238.765 168.071 238.756 167.11C238.747 166.149 237.723 163.569 236.481 161.377C234.037 157.061 231.995 156.211 223.553 156.001C216.405 155.823 217.866 157.502 225.478 158.212C229.145 158.556 232.595 159.286 233.145 159.837C234.788 161.48 233.399 161.88 229.649 160.844C227.089 160.137 224.864 160.251 221.506 161.262L216.887 162.652L210.813 153.784C205.389 145.866 205.019 145.022 207.35 145.908C211.507 147.489 217.06 147.067 220.825 144.885C232.053 138.378 233.642 137.94 246.062 137.93L257.843 137.92L260.384 143.658ZM207.826 153.705C214.668 163.455 216.368 166.564 216.048 168.744C215.499 172.482 219.713 177.411 224.173 178.248C228.385 179.038 232.399 177.57 236.292 173.818C238.5 171.688 239.909 171.076 241.587 171.514C243.059 171.899 243.677 172.629 243.32 173.56C243.013 174.356 242.764 176.287 242.764 177.848C242.764 179.411 242.111 181.342 241.315 182.14C239.665 183.788 240.272 184.952 242.363 184.15C243.132 183.854 243.762 182.752 243.762 181.701C243.762 179.882 243.886 179.869 246.298 181.45L248.833 183.112L246.634 185.452C243.047 189.27 230.456 197.57 227.779 197.882C223.527 198.377 221.081 196.904 214.84 190.093C207.008 181.545 202.675 172.808 201.921 164.038C201.395 157.929 201.168 157.399 199.159 157.608C196.19 157.917 192.865 153.508 192.865 149.262C192.865 144.679 194.666 144.995 195.051 149.646C195.302 152.681 195.796 153.45 197.661 153.715C199.846 154.024 199.946 153.775 199.657 148.725C199.361 143.571 199.265 143.415 196.528 143.607C194.128 143.777 193.888 143.582 194.939 142.317C195.619 141.498 196.855 140.96 197.688 141.12C198.519 141.281 203.082 146.944 207.826 153.705ZM361.907 144.615C372.258 147.882 379.587 158.689 383.946 177.116C386.756 188.991 388.058 198.058 386.629 195.802C386.108 194.978 384.303 190.382 382.617 185.588C378.737 174.552 377.239 171.686 372.761 166.729C368.803 162.348 364.287 159.698 357.805 157.953C354.004 156.93 353.493 156.414 352.506 152.61C351.906 150.293 351.026 146.924 350.552 145.123L349.69 141.848L353.361 142.461C355.379 142.8 359.226 143.768 361.907 144.615ZM197.539 147.089C197.221 147.884 196.984 147.648 196.936 146.485C196.893 145.433 197.129 144.845 197.46 145.176C197.791 145.507 197.827 146.368 197.539 147.089ZM197.539 152.079C197.221 152.874 196.984 152.638 196.936 151.475C196.893 150.423 197.129 149.834 197.46 150.166C197.791 150.497 197.827 151.358 197.539 152.079ZM203.879 178.515C205.591 182.019 209.917 187.919 213.9 192.185L220.908 199.69L216.617 200.96C210.011 202.916 191.227 202.676 186.588 200.576L182.806 198.865L186.405 193.633C192.075 185.389 194.902 178.506 198.427 164.366C199.117 161.601 199.239 161.793 200.02 166.861C200.486 169.88 202.222 175.124 203.879 178.515ZM428.01 162.67C427.004 164.299 424.253 181.846 424.646 184.13C425.059 186.519 425.105 186.312 427.723 170.853C429.122 162.583 429.186 160.766 428.01 162.67ZM234.765 165.35C237.656 167.966 237.253 170.388 233.439 173.297C228.758 176.866 222.728 176.829 219.883 173.213C217.28 169.904 217.292 168.792 219.97 165.388C221.94 162.883 222.58 162.686 227.439 163.088C230.667 163.357 233.543 164.244 234.765 165.35ZM264.026 166.611C264.33 168.12 264.869 170.254 265.223 171.352L265.868 173.348L264.67 171.352C264.012 170.254 262.847 168.852 262.083 168.235C261.318 167.618 260.973 166.384 261.316 165.491C262.251 163.054 263.404 163.531 264.026 166.611ZM258.731 165.735C258.731 166.214 256.974 166.887 254.826 167.23C252.68 167.573 250.097 168.146 249.088 168.502C247.726 168.984 247.529 168.851 248.325 167.983C248.912 167.343 251.382 166.428 253.813 165.951C256.243 165.474 258.345 165.034 258.482 164.975C258.619 164.914 258.731 165.256 258.731 165.735ZM468.332 175.615C463.777 181.858 462.814 182.654 459.073 183.251C450.547 184.615 427.153 193.898 423.178 197.496C420.21 200.182 421.185 197.761 424.824 193.41C431.847 185.013 433.596 183.335 435.019 183.633C436.806 184.007 451.667 178.232 463.814 172.443C468.754 170.089 472.935 168.272 473.106 168.405C473.277 168.537 471.129 171.783 468.332 175.615ZM252.636 173.558C251.597 175.596 250.748 178.066 250.748 179.047C250.748 181.164 249.778 181.303 247.36 179.536C243.393 176.635 247.231 169.921 252.885 169.87C254.36 169.856 254.335 170.226 252.636 173.558ZM261.448 171.102C264.66 175.254 261.997 180.303 255.987 181.457C252.354 182.155 251.927 181.115 253.811 176.159C255.881 170.714 259.364 168.409 261.448 171.102ZM415.154 178.443C407.218 204.948 403.72 217.757 404.418 217.757C404.848 217.757 405.428 216.972 405.707 216.011C415.283 183.035 418.452 171.49 418.165 170.626C417.97 170.043 416.615 173.561 415.154 178.443ZM230.788 180.26C230.788 180.661 236.682 183.826 237.429 183.826C237.618 183.826 237.774 183.204 237.774 182.446C237.774 181.687 236.764 180.794 235.529 180.463C232.878 179.753 230.788 179.664 230.788 180.26ZM460.717 186.072C457.647 191.398 450.528 199.943 448.875 200.289C447.76 200.521 443.48 201.376 439.363 202.189C430.226 203.993 424.338 206.038 418.61 209.394C412.271 213.11 414.201 213.441 421.141 209.828C426.736 206.916 445.649 201.389 447.69 202.07C449.19 202.57 442.879 209.171 437.083 213.162C431.11 217.276 418.851 222.154 411.846 223.205C407.31 223.885 407.189 223.837 407.757 221.575C408.078 220.293 410.2 215.878 412.471 211.764C418.276 201.248 426.906 195.299 445.785 188.801C458.02 184.59 461.99 183.864 460.717 186.072ZM223.899 189.351C227.26 192.732 233.688 193.757 236.143 191.303C239.13 188.315 237.539 187.334 229.211 187.031L221.308 186.743L223.899 189.351ZM354.499 188.46C360.888 189.737 372.794 208.445 376.174 222.516C378.417 231.855 378.759 232.686 379.237 229.943C380.362 223.486 373.137 205.565 365.529 195.94C363.299 193.119 361.729 190.812 362.038 190.812C363.694 190.812 371.116 195.362 374.612 198.521C382.708 205.834 384.357 212.391 382.475 229.766L381.193 241.611L377.777 235.921C375.899 232.792 373.156 228.948 371.684 227.379C368.175 223.641 355.271 214.908 351.227 213.535C349.48 212.941 346.422 211.006 344.432 209.233C339.579 204.911 332.59 200.905 325.302 198.266L319.295 196.091L325.06 193.452C328.232 192 331.634 190.812 332.621 190.812C335.414 190.812 345.414 200.573 348.84 206.643C352.332 212.83 353.783 212.129 350.559 205.811C347.9 200.597 342.397 194.484 337.813 191.651C334.659 189.702 334.472 189.369 336.164 188.706C338.562 187.765 350.244 187.608 354.499 188.46ZM235.279 189.814C234.495 191.083 229.758 191.083 227.794 189.814C226.714 189.115 227.63 188.842 231.097 188.831C234.046 188.822 235.658 189.201 235.279 189.814ZM324.979 200.143C331.332 202.449 342.057 208.614 341.202 209.468C340.963 209.708 338.901 209.402 336.623 208.788C330.991 207.272 313.152 207.419 307.632 209.027C304.467 209.949 300.948 210.107 295.714 209.563C288.075 208.769 283.536 206.779 289.364 206.779C293.162 206.779 303.76 203.569 310.837 200.274C317.302 197.265 317.056 197.267 324.979 200.143ZM184.882 201.79C190.799 204.386 192.871 204.781 200.518 204.758C206.433 204.74 212.614 203.924 219.312 202.277C236.864 197.959 239.741 199.248 230.389 207.238C226.149 210.86 223.861 212.033 219.661 212.737C216.724 213.23 211.036 214.336 207.022 215.196C197.834 217.163 183.755 217.208 177.329 215.291C172.72 213.916 164.922 208.605 164.922 206.84C164.922 205.427 174.175 198.796 176.146 198.796C177.199 198.796 181.13 200.143 184.882 201.79ZM243.991 203.903C246.27 205.065 251.08 206.392 254.681 206.853C259.613 207.483 263.556 208.932 270.677 212.732C280.661 218.06 283.877 221.044 285.768 226.739C286.657 229.41 294.657 249.832 299.35 261.4C299.736 262.353 297.296 262.491 288.521 262.01C282.291 261.669 277.083 261.304 276.947 261.199C276.812 261.094 278.223 257.451 280.083 253.105C284.206 243.472 285.072 240.71 283.966 240.71C283.501 240.71 281.113 245.424 278.66 251.184C275.121 259.495 273.788 261.659 272.204 261.664C270.289 261.671 270.22 261.108 270.51 247.698C270.684 239.673 270.423 233.725 269.898 233.725C268.754 233.725 267.35 255.381 268.259 259.003C268.804 261.175 268.584 261.668 267.072 261.667C265.531 261.667 264.908 260.108 263.382 252.435C262.371 247.359 261.296 239.95 260.992 235.97C260.688 231.99 260.055 228.735 259.586 228.735C258.054 228.735 258.685 239.587 260.841 250.296C262.001 256.06 262.705 261.02 262.406 261.319C262.107 261.619 244.875 262.164 224.111 262.532C188.674 263.16 186.145 263.324 182.876 265.223C178.167 267.959 177.43 270.947 175.316 295.842C174.349 307.228 173.385 316.369 173.174 316.158C172.961 315.945 170.839 306.181 168.457 294.458C164.643 275.681 155.296 236.936 154.308 235.803C152.519 233.753 153.643 240.138 158.804 261.339C164.869 286.251 166.352 293.1 169.469 310.568C170.399 315.782 171.583 320.581 172.1 321.229C172.64 321.908 172.747 325.382 172.353 329.385C171.728 335.733 171.442 336.415 169.174 336.985C167.804 337.329 166.48 337.407 166.233 337.16C165.984 336.912 165.384 331.098 164.898 324.239C162.962 296.928 160.835 281.088 157.227 267.156C153.398 252.365 153.28 252.02 152.357 252.943C152.032 253.268 153.356 259.967 155.3 267.83C158.273 279.861 162.926 313.739 162.926 323.356C162.926 324.256 161.243 322.141 159.184 318.656C155.456 312.341 149.068 304.98 145.671 303.083C144.628 302.501 143.24 299.591 142.336 296.098C139.763 286.138 134.7 276.282 130.495 273.044C121.599 266.195 120.014 264.476 120.014 261.676C120.014 253.841 128.516 231.61 134.739 223.169C138.363 218.256 145.866 213.106 151.391 211.74C153.618 211.19 157.057 210.248 159.032 209.649C162.381 208.63 162.931 208.792 167.215 212.062C169.741 213.99 174.188 216.362 177.097 217.333C184.171 219.694 197.626 219.531 209.831 216.937C215.045 215.829 220.946 214.65 222.944 214.319C225.532 213.889 228.404 212.013 232.924 207.797C236.415 204.541 239.401 201.858 239.56 201.834C239.719 201.81 241.714 202.741 243.991 203.903ZM345.056 212.869L352.041 215.262L338.204 215.541C326.303 215.78 323.612 215.536 318.957 213.794C315.98 212.68 312.664 211.769 311.586 211.769C310.509 211.769 309.628 211.27 309.628 210.661C309.628 209.877 313.807 209.688 323.849 210.014C335.42 210.389 339.371 210.921 345.056 212.869ZM400.59 222.927C399.686 223.3 397.936 223.636 396.7 223.675C394.655 223.739 394.455 223.29 394.455 218.626V213.509L398.345 217.878C401.611 221.546 401.972 222.357 400.59 222.927ZM357.544 219.098C364.047 222.199 370.87 228.219 375.183 234.661C380.217 242.179 380.742 244.681 376.443 240.665C374.77 239.102 371.065 236.693 368.209 235.311C365.054 233.784 363.801 232.779 365.015 232.748C366.113 232.72 367.528 232.366 368.158 231.963C368.79 231.56 363.077 231.135 355.463 231.018C344.045 230.844 340.964 230.471 337.875 228.886L334.132 226.966L349.823 227.102C358.453 227.177 365.514 226.957 365.514 226.614C365.514 225.382 359.058 224.735 352.969 225.359C349.555 225.709 343.459 225.656 339.422 225.242C332.634 224.544 331.846 224.216 328.948 220.873L325.814 217.258L339.94 217.349C350.904 217.42 354.844 217.811 357.544 219.098ZM432.795 221.357C435.184 222.274 434.781 228.127 431.718 236.968C430.244 241.221 428.739 244.702 428.373 244.702C428.008 244.702 427.197 243.58 426.573 242.209C424.791 238.3 417.686 231.09 413.795 229.244C408.45 226.708 408.767 228.027 414.331 231.487C419.246 234.542 425.879 242.322 426.96 246.302C427.571 248.552 422.044 262.885 419.867 264.691C417.228 266.882 408.251 247.983 406.758 237.093C406.425 234.662 405.755 232.427 405.27 232.127C404.774 231.82 404.674 233.47 405.042 235.896C406.225 243.685 410.32 255.064 414.314 261.668C416.473 265.235 418.088 268.307 417.901 268.493C417.146 269.248 403.432 260.471 398.65 256.173C393.354 251.411 387.222 242.277 386.08 237.451C385.527 235.111 385.82 234.541 388.01 233.709C392.443 232.023 392.761 232.355 392.081 237.966C391.697 241.142 391.791 242.615 392.323 241.708C392.806 240.885 393.509 237.374 393.885 233.906C394.923 224.339 394.435 224.751 404.791 224.682C410.842 224.641 415.765 224.003 419.404 222.788C425.157 220.868 430.133 220.336 432.795 221.357ZM396.965 236.695C396.148 238.015 395.02 248.334 395.764 247.66C396.376 247.108 398.37 235.72 397.856 235.72C397.696 235.72 397.296 236.159 396.965 236.695ZM366.492 251.777C375.59 253.728 378.833 258.372 381.04 272.619L381.733 277.084L375.604 271.412C361.032 257.919 348.003 253.774 337.072 259.151C333.539 260.888 330.479 261.592 326.593 261.558C323.574 261.532 321.778 261.272 322.601 260.983C323.425 260.693 327.936 258.717 332.627 256.592C344.665 251.138 355.998 249.526 366.492 251.777ZM395.058 269.56C394.726 276.92 394.455 288.708 394.455 295.756C394.455 306.482 394.21 308.572 392.958 308.572C391.681 308.572 391.461 305.817 391.461 289.764C391.461 279.419 391.757 266.781 392.12 261.68C392.712 253.32 392.92 252.589 394.218 254.291C395.384 255.818 395.544 258.742 395.058 269.56ZM359.335 261.572C364.161 264.007 375.766 272.645 374.213 272.645C373.992 272.645 371.157 271.717 367.916 270.583C364.674 269.449 358.428 267.719 354.037 266.738C346.147 264.977 336.896 260.156 339.697 259.266C340.449 259.027 341.737 258.582 342.561 258.276C345.68 257.118 353.591 258.672 359.335 261.572ZM403.437 263.807C403.437 266.369 397.379 301.948 396.849 302.501C396.225 303.153 396.391 281.319 397.105 268.942L397.749 257.754L400.593 259.778C402.157 260.892 403.437 262.706 403.437 263.807ZM296.931 264.586C306.755 265.617 308.63 267.104 308.63 273.866C308.63 276.563 307.106 285.812 305.243 294.419C303.379 303.026 301.068 314.335 300.106 319.55C294.74 348.647 288.78 377.717 288.032 378.444C286.314 380.111 253.311 381.42 213.324 381.407C190.82 381.4 171.797 381.007 171.051 380.534C170.098 379.93 169.877 378.526 170.308 375.809C170.646 373.682 172.266 356.001 173.911 336.515C178.244 285.148 179.61 272.042 180.879 269.671C181.501 268.51 183.217 267.057 184.693 266.441C189.034 264.63 282.611 263.083 296.931 264.586ZM358.167 269.214C367.542 271.926 378.487 276.445 378.487 277.604C378.487 278.477 368.698 277.831 361.751 276.498C356.629 275.515 348.693 270.629 347.795 267.905C347.229 266.188 348.066 266.294 358.167 269.214ZM131.965 277.262C135.477 281.261 140.541 295.242 141.821 304.476C142.84 311.832 145.932 318.004 152.166 325.124L154.878 328.222L149.671 326.831C145.408 325.692 141.792 325.637 129.733 326.529C115.875 327.552 114.737 327.5 110.522 325.635C108.058 324.546 106.042 323.276 106.042 322.815C106.042 322.353 107.387 321.181 109.03 320.21C110.674 319.24 112.215 317.459 112.454 316.253C112.695 315.048 113.82 309.936 114.955 304.896C116.091 299.855 117.02 292.367 117.02 288.255C117.02 281.934 118.04 274.324 119.623 268.837C120.081 267.25 127.797 272.518 131.965 277.262ZM314.419 316.422C318.395 324.344 319.795 330.527 317.611 330.527C315.91 330.527 312.622 326.635 312.622 324.621C312.622 320.503 311.549 319.55 306.915 319.55H302.419L303.079 315.807C303.441 313.75 304.474 308.542 305.375 304.237L307.014 296.409L308.621 302.241C309.505 305.448 312.114 311.83 314.419 316.422ZM152.05 311.813C156.34 317.239 163.924 331.411 163.924 333.998C163.924 336.487 162.197 335.723 161.153 332.773C160.619 331.264 157.051 326.211 153.225 321.546C145.469 312.087 143.965 309.662 143.965 306.607C143.965 304.817 144.258 304.667 145.969 305.582C147.071 306.172 149.807 308.976 152.05 311.813ZM408.676 311.316C398.659 311.478 382.268 311.478 372.25 311.316C362.234 311.152 370.429 311.019 390.463 311.019C410.497 311.019 418.694 311.152 408.676 311.316ZM128.497 314.606C125.752 315.678 121.654 316.555 119.387 316.555C117.122 316.556 114.759 317.17 114.136 317.92C111.928 320.581 115.446 321.644 127.668 322.012C134.161 322.207 140.956 322.908 142.769 323.569C144.581 324.229 146.325 324.509 146.646 324.188C147.714 323.119 144.74 317.544 141.764 315.039C138.259 312.09 135.195 311.99 128.497 314.606ZM433.142 342.004C432.766 368.728 432.561 371.48 430.472 377.931C425.99 391.77 417.252 403.716 406.738 410.385C402.186 413.271 401.685 413.359 389.72 413.359C380.62 413.359 376.619 412.959 374.446 411.836C372.827 410.998 371.502 410.137 371.502 409.921C371.502 409.705 372.224 406.707 373.107 403.259C375.72 393.063 373.526 378.603 368.129 370.447C365.236 366.078 357.249 361.764 351.043 361.22L347.051 360.871L346.785 336.966L346.518 313.063H390.034H433.55L433.142 342.004ZM139.232 315.629C141.391 316.613 144.527 320.342 143.784 321.044C143.61 321.209 140.996 320.932 137.977 320.428C134.958 319.923 130.376 319.783 127.794 320.117C120.195 321.098 120.101 319.478 127.614 317.013C135.846 314.312 136.24 314.266 139.232 315.629ZM111.275 328.158C113.711 329.418 115.985 329.642 121.454 329.162L128.497 328.543L122.01 332.069C115.033 335.862 108.049 337.923 106.712 336.586C105.911 335.785 106.823 326.536 107.702 326.536C107.941 326.536 109.549 327.266 111.275 328.158ZM309.319 345.063C312.017 350.742 312.911 354.011 313.134 358.994C313.417 365.336 313.347 365.546 310.435 367.052C308.791 367.901 307.28 368.431 307.077 368.228C306.873 368.025 307.359 365.409 308.156 362.415C308.952 359.423 309.61 355.501 309.616 353.7C309.629 350.154 305.562 339.635 302.528 335.364C301.493 333.907 300.646 332.118 300.646 331.389C300.646 329.327 305.423 336.858 309.319 345.063ZM304.762 343.116C306.357 346.634 307.632 351.18 307.632 353.354C307.632 357.223 304.53 368.583 302.701 371.415C300.961 374.108 300.702 371.906 302.18 366.997C302.983 364.329 303.604 360.757 303.561 359.06C303.484 356.055 303.46 356.04 302.638 358.47C302.173 359.843 300.791 364.246 299.566 368.256C297.787 374.081 296.779 375.836 294.551 376.988C290.544 379.061 290.009 378.769 292.9 376.09C294.506 374.602 295.847 371.788 296.586 368.355C298.548 359.247 299 354.479 297.901 354.479C297.34 354.479 296.578 356.611 296.209 359.219C295.45 364.575 292.557 375.664 292.052 375.158C291.721 374.828 298.331 339.192 299.185 336.702C299.957 334.448 301.786 336.551 304.762 343.116ZM170.414 350.303L169.723 357.678L158.59 356.966C152.468 356.573 147.358 356.164 147.235 356.057C146.382 355.312 149.579 347.824 151.823 345.312C154.068 342.8 156.012 341.942 162.489 340.603C171.834 338.672 171.538 338.309 170.414 350.303ZM114.76 360.311C120.926 361.844 126.164 363.292 126.401 363.528C126.636 363.766 121.366 363.962 114.69 363.965C101.966 363.972 92.5588 364.919 90.0948 366.441C87.555 368.011 89.4691 368.378 94.0937 367.209C96.5487 366.587 105.518 366.067 114.026 366.052C127.71 366.029 130.013 366.269 133.985 368.131C139.223 370.586 149.228 379.175 148.404 380.51C147.629 381.764 139.97 381.656 132.531 380.286C129.108 379.655 124.275 379.46 121.687 379.848C111.468 381.381 117.781 382.245 142.468 382.693C146.31 382.762 152.879 382.445 157.065 381.986C164.218 381.202 165.423 381.376 177.025 384.871C189.405 388.599 209.367 396.315 213.573 398.999C214.809 399.786 215.819 401.358 215.819 402.492C215.819 407.267 199.696 436.834 197.528 436.034C196.884 435.797 189.847 433.925 181.888 431.874C163.106 427.034 151.334 421.309 134.544 408.854C113.508 393.247 101.307 387.412 89.7086 387.412C82.9903 387.412 75.284 389.535 70.8949 392.597L68.1805 394.49L67.5757 392.081C66.7174 388.66 68.6934 379.006 71.35 373.639C74.6573 366.958 82.2049 359.812 87.8544 358.012C93.7813 356.124 100.084 356.663 114.76 360.311ZM169.912 360.965C169.912 362.192 168.153 362.467 160.182 362.49L150.452 362.519L155.069 366.732C162.696 373.688 166.077 376.434 167.021 376.434C167.513 376.434 167.916 377.108 167.916 377.931C167.916 381.011 163.235 379.221 155.941 373.353C138.604 359.407 138.602 359.468 156.44 359.468C167.75 359.468 169.912 359.709 169.912 360.965ZM361.487 366.811C363.567 368.188 366.238 370.883 367.424 372.802C369.818 376.675 372.464 387.742 372.468 393.898C372.47 397.762 372.43 397.81 371.214 395.395C370.476 393.927 368.941 392.784 367.487 392.616C364.318 392.252 350.382 398.995 339.89 405.968C329.024 413.19 322.503 416.313 307.764 421.349C297.266 424.938 294.733 425.462 290.799 424.861C288.256 424.472 280.762 423.858 274.146 423.497L262.117 422.839L255.481 418.511C251.831 416.131 244.114 412.282 238.331 409.957C232.549 407.632 227.587 405.5 227.304 405.217C227.022 404.935 231.62 402.852 237.522 400.589C243.424 398.325 256.336 393.26 266.216 389.332C276.096 385.403 286.078 381.865 288.398 381.469C290.811 381.057 295.548 378.8 299.468 376.192C312.645 367.431 315.443 366.432 331.983 364.585C349.317 362.649 355.954 363.15 361.487 366.811ZM164.673 369.138C163.712 369.389 162.141 369.389 161.18 369.138C160.219 368.887 161.005 368.682 162.926 368.682C164.848 368.682 165.634 368.887 164.673 369.138ZM168.166 373.103C167.48 373.38 166.357 373.38 165.671 373.103C164.985 372.826 165.546 372.6 166.918 372.6C168.291 372.6 168.852 372.826 168.166 373.103ZM276.612 382.823C275.591 383.808 224.659 403.379 223.118 403.379C222.169 403.379 219.801 401.833 217.857 399.945C214.173 396.366 203.913 391.552 189.711 386.739L181.389 383.919L221.807 383.403C244.036 383.119 265.554 382.782 269.626 382.654C273.697 382.526 276.84 382.602 276.612 382.823ZM16.9977 388.403C13.8132 389.362 -0.0645419 398.399 0.610084 399.074C1.22483 399.69 6.70267 396.83 12.2334 393.009C16.5257 390.044 17.1654 389.906 26.7039 389.906C32.1928 389.906 41.6235 390.297 47.6613 390.774C53.699 391.251 58.3904 391.375 58.086 391.052C57.2936 390.21 30.9882 387.396 24.8627 387.497C22.0334 387.544 18.4937 387.951 16.9977 388.403ZM109.287 395.145C115.08 398.032 125.357 404.581 132.987 410.248C150.55 423.29 160.429 428.174 179.552 433.263C187.872 435.479 195.872 437.744 197.33 438.298C201.05 439.712 202.157 439.556 201.452 437.718C200.511 435.267 204.43 430.404 206.838 431.034C207.936 431.32 208.833 431.741 208.833 431.97C208.833 433.781 205.641 439.342 204.141 440.145C200.56 442.061 185.592 444.296 176.338 444.296C164.24 444.296 161.568 443.702 128.996 433.78C113.901 429.181 98.7362 424.764 95.2962 423.964C87.3215 422.109 81.7428 418.82 75.8049 412.472C68.392 404.547 66.8951 397.91 71.7911 394.67C77.8697 390.647 82.3736 389.488 90.8243 389.772C98.4688 390.028 99.7931 390.413 109.287 395.145ZM369.306 395.595C369.965 396.254 370.504 398.513 370.504 400.617C370.504 408.466 365.524 416.104 355.955 422.932C346.917 429.382 344.435 430.05 339.815 427.274C335.548 424.711 328.443 424.302 310.626 425.597L300.147 426.358L312.254 422.016C324.461 417.638 331.493 414.136 341.563 407.419C349.54 402.097 356.407 398.253 361.522 396.251C366.95 394.124 367.766 394.055 369.306 395.595ZM237.468 411.822C241.416 413.288 248.376 416.789 252.936 419.602L261.226 424.717L274.2 425.412C281.335 425.795 288.745 426.628 290.666 427.261C293.136 428.077 300.2 428.216 314.782 427.738C334.708 427.086 335.523 427.136 338.852 429.192C341.37 430.749 343.914 431.322 348.306 431.322C352.652 431.322 354.942 431.83 356.58 433.156C359.7 435.682 358.289 437.31 352.98 437.31C350.406 437.31 348.548 437.773 348.548 438.415C348.548 439.028 349.276 439.24 350.186 438.891C352.463 438.016 355.534 439.153 355.534 440.87C355.534 441.761 354.499 442.306 352.79 442.315C349.9 442.331 346.735 443.813 347.645 444.723C347.94 445.018 349.544 444.744 351.211 444.115C354.329 442.938 357.53 443.488 357.53 445.201C357.53 445.734 355.473 446.477 352.959 446.854C350.447 447.232 348.145 448.177 347.847 448.955C347.129 450.824 348.44 452.075 349.432 450.469C349.858 449.78 351.915 448.937 354.002 448.599C356.995 448.113 357.701 448.279 357.337 449.382C357.073 450.185 354.032 451.379 350.217 452.18C346.555 452.948 343.559 454.015 343.559 454.55C343.559 455.116 344.916 455.25 346.802 454.872C355.209 453.187 357.53 453.042 357.53 454.203C357.53 454.854 355.397 456.361 352.79 457.555C348.339 459.591 346.555 459.724 323.599 459.743L299.149 459.764L291.165 456.377C284.83 453.689 281.43 452.893 274.699 452.526C266.79 452.095 265.642 451.738 257.733 447.251C246.266 440.744 235.837 436.635 220.006 432.389C212.704 430.43 206.823 428.378 206.937 427.829C207.051 427.28 209.656 421.647 212.728 415.31L218.314 403.789L224.301 406.473C227.595 407.949 233.52 410.356 237.468 411.822ZM372.001 412.361C372.34 412.91 371.666 413.359 370.504 413.359C369.341 413.359 368.667 412.91 369.007 412.361C369.346 411.812 370.02 411.363 370.504 411.363C370.988 411.363 371.661 411.812 372.001 412.361ZM414.224 418.016C414.707 421.408 406.591 422.606 386.098 422.168C367.419 421.768 363.631 420.868 365.546 417.291C366.558 415.4 367.575 415.33 390.258 415.586C413.667 415.851 413.918 415.877 414.224 418.016ZM143.466 440.338C158.8 445.064 161.566 445.614 172.229 446.055C184.327 446.555 195.707 445.318 203.149 442.692C207.733 441.074 207.467 440.984 208.333 444.435L208.993 447.065L199.682 447.793C194.561 448.192 187.676 449.388 184.383 450.45C180.165 451.81 171.018 452.945 153.446 454.286C139.724 455.333 123.781 457.129 118.018 458.276C107.237 460.423 102.33 460.273 98.6364 457.685C96.7573 456.37 96.909 456.271 100.83 456.271C103.148 456.271 105.044 455.822 105.044 455.273C105.044 454.724 102.536 454.275 99.4727 454.275C91.7275 454.275 92.8672 452.376 101.884 450.258C105.849 449.326 109.38 448.278 109.73 447.926C110.816 446.84 105.826 447.253 99.5556 448.767C92.3013 450.518 92.0708 450.535 92.0708 449.311C92.0708 447.528 97.9029 445.294 102.558 445.294C105.682 445.294 106.938 444.937 106.471 444.183C105.848 443.174 98.1823 443.313 94.1256 444.407C93.3352 444.62 92.5408 444.121 92.3612 443.298C91.8083 440.762 99.0636 436.005 106.954 433.728C115.503 431.263 111.918 430.614 143.466 440.338ZM221.499 434.783C230.565 437.211 244.088 442.136 248.566 444.64C250.944 445.97 251.123 445.924 220.639 451.734C219.538 451.943 218.749 451.163 218.316 449.437C217.954 447.999 216.152 443.56 214.309 439.571C212.467 435.583 211.266 432.321 211.642 432.323C212.018 432.324 216.453 433.431 221.499 434.783ZM216.342 449.361C217.6 453.325 214.635 450.914 211.562 445.475C209.355 441.568 208.796 439.596 209.318 437.544C209.976 434.962 210.163 435.147 212.835 441.01C214.388 444.418 215.965 448.176 216.342 449.361ZM358.212 441.489C357.893 442.285 357.657 442.048 357.609 440.886C357.566 439.834 357.802 439.245 358.133 439.576C358.464 439.908 358.5 440.769 358.212 441.489Z" fill="#currentColor"/>
</svg>
